<?xml version="1.0" encoding="UTF-8" standalone="no"?>
<!DOCTYPE svg PUBLIC "-//W3C//DTD SVG 1.1//EN" "http://www.w3.org/Graphics/SVG/1.1/DTD/svg11.dtd">
<svg xmlns="http://www.w3.org/2000/svg" version="1.1" viewBox="0.00 0.00 2000.00 554.00">
<g stroke-width="2.00" fill="none" stroke-linecap="butt">
<path stroke="#69748e" vector-effect="non-scaling-stroke" d="
  M 580.91 154.17
  L 580.85 134.56
  A 0.50 0.50 0.0 0 0 580.34 134.07
  Q 563.64 134.18 500.25 134.17
  C 478.65 134.17 460.57 116.73 460.62 94.73
  Q 460.65 79.25 460.67 15.46
  A 0.50 0.50 0.0 0 0 460.17 14.96
  L 441.75 15.00"
/>
<path stroke="#69748e" vector-effect="non-scaling-stroke" d="
  M 150.30 36.75
  L 131.79 48.94
  A 1.07 1.07 0.0 0 0 131.36 50.17
  Q 131.93 51.94 131.95 53.25
  Q 132.11 69.05 131.96 293.60
  A 0.58 0.58 0.0 0 0 132.67 294.17
  Q 145.20 291.20 145.21 304.05"
/>
<path stroke="#566b8c" vector-effect="non-scaling-stroke" d="
  M 143.74 345.56
  C 147.56 348.19 150.64 352.05 147.14 356.43
  Q 145.59 358.37 144.01 358.83
  Q 134.89 361.49 133.03 362.04
  A 1.38 1.37 81.8 0 0 132.05 363.36
  L 132.05 429.53
  A 6.54 6.47 30.8 0 0 132.86 432.67
  C 140.44 446.42 140.62 460.56 134.00 474.80
  A 9.81 9.58 60.3 0 0 133.11 478.22
  Q 132.55 485.55 133.22 493.75
  C 134.75 512.63 146.29 528.53 164.20 535.39"
/>
<path stroke="#395b8a" vector-effect="non-scaling-stroke" d="
  M 164.20 535.39
  C 173.81 539.05 183.49 539.17 193.82 538.75
  A 0.41 0.41 0.0 0 0 194.08 538.03
  Q 177.14 522.76 173.30 501.00
  Q 172.43 496.07 172.33 471.98
  Q 172.18 436.48 172.18 400.96"
/>
<path stroke="#566b8c" vector-effect="non-scaling-stroke" d="
  M 172.18 400.96
  C 171.59 256.26 171.76 118.17 171.88 22.94
  Q 171.88 21.95 170.99 21.96
  Q 170.21 21.98 169.86 22.99
  A 1.86 1.84 -7.8 0 1 169.14 23.93
  L 150.30 36.75"
/>
<path stroke="#83b9ec" vector-effect="non-scaling-stroke" d="
  M 172.18 400.96
  L 171.86 397.65
  A 0.93 0.92 -89.2 0 0 171.07 396.83
  L 151.78 394.16
  A 0.63 0.63 0.0 0 0 151.06 394.78
  Q 150.92 457.92 150.67 481.48
  C 150.58 490.04 150.89 498.73 152.14 505.15
  Q 155.22 520.97 164.98 534.01
  A 0.98 0.97 -36.1 0 1 164.76 535.39
  Q 164.70 535.44 164.20 535.39"
/>
<path stroke="#b3d2f1" vector-effect="non-scaling-stroke" d="
  M 150.26 307.82
  C 150.45 305.67 150.75 303.32 150.70 301.30
  Q 150.24 282.73 150.93 263.49
  C 151.20 255.87 150.28 248.40 150.47 240.58
  Q 150.93 221.40 150.88 217.09
  C 150.82 212.74 150.33 207.83 150.47 204.24
  Q 151.12 187.98 150.66 174.68
  C 150.38 166.66 150.62 159.45 150.85 151.93
  Q 150.97 147.97 150.62 134.87
  Q 150.35 125.01 150.82 111.75
  C 151.10 103.64 150.42 93.68 150.58 84.76
  C 150.75 75.70 151.09 70.74 150.73 63.63
  Q 150.28 54.44 150.85 42.74
  C 150.94 40.86 150.61 38.68 150.30 36.75"
/>
<path stroke="#69748e" vector-effect="non-scaling-stroke" d="
  M 608.93 309.93
  L 595.72 321.35
  A 1.61 1.61 0.0 0 0 595.17 322.56
  L 595.17 361.58
  A 0.28 0.28 0.0 0 0 595.57 361.83
  Q 598.97 360.22 602.43 357.92
  Q 620.73 345.77 636.56 329.23"
/>
<path stroke="#286d6c" vector-effect="non-scaling-stroke" d="
  M 268.03 399.57
  Q 245.30 423.07 222.92 446.43
  Q 203.65 466.55 189.36 480.86
  Q 186.78 483.45 186.71 485.49
  C 185.94 509.48 199.62 530.56 222.74 537.21
  Q 228.54 538.87 242.40 538.95
  C 303.24 539.30 364.19 539.14 425.29 538.96"
/>
<path stroke="#347761" vector-effect="non-scaling-stroke" d="
  M 425.29 538.96
  L 433.54 538.93"
/>
<path stroke="#286d6c" vector-effect="non-scaling-stroke" d="
  M 433.54 538.93
  L 530.05 539.16"
/>
<path stroke="#347761" vector-effect="non-scaling-stroke" d="
  M 530.05 539.16
  C 551.42 539.88 570.09 526.21 577.78 506.67
  C 580.10 500.76 580.73 494.26 580.97 487.50
  C 581.10 483.90 579.74 483.21 577.79 481.21
  Q 523.10 425.05 515.88 417.62
  Q 507.43 408.92 507.03 408.48
  C 500.32 401.24 495.59 397.24 486.79 400.14
  Q 483.92 401.09 478.25 406.67
  Q 472.52 412.33 466.77 418.32"
/>
<path stroke="#286d6c" vector-effect="non-scaling-stroke" d="
  M 466.77 418.32
  L 440.58 445.05"
/>
<path stroke="#1b596a" vector-effect="non-scaling-stroke" d="
  M 440.58 445.05
  L 415.41 471.42
  A 0.90 0.89 -44.0 0 0 415.38 472.63
  Q 422.30 480.49 429.42 486.89
  C 436.37 493.14 442.93 496.22 451.52 496.95
  Q 467.74 498.31 484.76 495.72
  Q 494.19 494.29 502.06 490.43"
/>
<path stroke="#286d6c" vector-effect="non-scaling-stroke" d="
  M 502.06 490.43
  Q 497.38 494.61 492.94 497.96
  C 482.43 505.89 470.03 511.65 456.30 510.76"
/>
<path stroke="#347761" vector-effect="non-scaling-stroke" d="
  M 456.30 510.76
  C 442.75 510.24 430.51 507.18 420.44 497.56
  C 407.50 485.22 385.34 461.79 362.43 438.49
  Q 321.40 396.74 313.42 388.26
  Q 306.17 380.55 302.68 379.18
  Q 295.75 376.46 289.20 379.27
  Q 286.36 380.49 278.29 388.98
  Q 273.16 394.37 268.03 399.57"
/>
<path stroke="#51d6a4" vector-effect="non-scaling-stroke" d="
  M 456.30 510.76
  C 452.09 519.74 448.41 528.79 445.87 538.31
  A 0.64 0.64 0.0 0 1 445.26 538.79
  L 433.54 538.93"
/>
<path stroke="#51d6a4" vector-effect="non-scaling-stroke" d="
  M 425.29 538.96
  Q 420.15 534.93 414.17 532.03
  A 10.00 9.92 76.2 0 1 412.58 531.06
  C 409.03 528.38 406.10 526.37 402.71 523.25
  Q 387.73 509.43 375.23 496.60
  Q 359.17 480.12 359.11 480.05
  Q 357.26 477.83 293.72 414.53
  Q 287.39 408.23 280.69 403.79
  Q 274.72 399.85 268.03 399.57"
/>
<path stroke="#38b8ad" vector-effect="non-scaling-stroke" d="
  M 502.06 490.43
  Q 502.79 490.35 503.39 489.08
  A 0.35 0.35 0.0 0 0 503.10 488.58
  Q 495.75 488.01 493.50 487.04
  Q 461.22 473.21 440.58 445.05"
/>
<path stroke="#51d6a4" vector-effect="non-scaling-stroke" d="
  M 530.05 539.16
  C 537.59 537.79 542.60 536.81 548.07 533.50
  Q 551.00 531.72 556.99 528.49
  C 560.70 526.49 569.12 519.93 569.51 515.21
  A 2.94 2.93 24.9 0 0 568.66 512.90
  Q 538.65 482.92 534.35 478.51
  Q 522.92 466.76 522.33 466.19
  Q 507.83 452.05 489.66 433.13
  Q 483.05 426.25 475.26 421.34
  A 8.58 8.35 69.3 0 0 473.40 420.47
  L 466.77 418.32"
/>
</g>
<path fill="#0b0d29" d="
  M 595.36 301.86
  A 0.27 0.26 67.6 0 0 595.81 302.05
  C 599.66 298.24 602.87 294.97 605.79 291.08
  Q 617.00 276.14 626.12 258.87
  Q 626.91 257.37 627.43 255.63
  A 3.78 3.76 49.3 0 0 627.55 253.96
  C 625.69 241.84 625.82 230.55 630.32 219.14
  C 633.97 209.88 642.44 204.09 652.59 207.18
  A 1.35 1.33 -65.4 0 0 654.12 206.60
  Q 663.96 190.88 677.82 178.06
  C 687.85 168.76 702.83 160.15 716.28 167.69
  C 727.50 173.98 727.10 188.04 718.66 196.47
  Q 707.58 207.54 705.59 209.67
  A 0.36 0.36 0.0 0 0 705.80 210.27
  C 713.40 211.37 720.54 213.85 726.00 219.79
  Q 737.68 232.52 734.44 249.71
  C 731.88 263.28 720.98 275.39 708.64 282.67
  Q 697.10 289.48 683.82 291.96
  A 1.60 1.59 8.6 0 0 682.70 292.78
  Q 677.98 301.41 673.23 308.49
  Q 671.83 310.58 664.22 320.27
  Q 659.47 326.33 654.51 331.51
  Q 637.28 349.48 624.26 359.51
  Q 621.77 361.42 610.61 369.11
  Q 603.44 374.04 595.70 377.79
  A 1.16 1.15 -13.4 0 0 595.06 378.82
  Q 595.20 449.76 595.21 491.23
  Q 595.21 502.47 589.98 514.32
  Q 579.15 538.85 554.11 548.84
  Q 543.30 553.15 531.50 553.15
  Q 252.14 553.09 184.25 553.37
  C 157.39 553.49 134.44 539.83 123.37 515.45
  Q 118.77 505.32 118.12 493.97
  A 0.39 0.39 0.0 0 0 117.46 493.71
  C 98.83 511.24 66.83 515.29 51.32 490.83
  C 44.49 480.04 44.40 465.93 53.36 456.28
  A 0.91 0.90 -47.2 0 0 53.32 455.00
  Q 49.15 451.11 44.42 445.83
  Q 32.36 432.35 27.29 414.02
  Q 20.70 390.17 31.43 367.19
  Q 36.87 355.53 43.43 347.92
  C 48.81 341.67 55.65 334.82 62.80 329.32
  Q 87.07 310.64 116.60 299.77
  A 1.41 1.41 0.0 0 0 117.52 298.45
  Q 117.46 209.42 117.47 62.17
  C 117.47 55.41 118.21 49.78 118.01 43.62
  A 1.10 1.10 0.0 0 1 118.50 42.67
  L 179.86 1.54
  A 2.53 2.53 0.0 0 1 181.27 1.11
  Q 385.04 1.06 457.25 1.14
  Q 463.28 1.15 467.75 0.89
  Q 470.38 0.74 472.47 2.27
  Q 474.27 3.59 479.78 8.97
  Q 537.33 65.15 592.09 121.17
  Q 594.68 123.83 594.77 126.58
  Q 595.04 135.48 595.03 155.50
  Q 595.01 275.14 595.36 301.86
  Z
  M 580.91 154.17
  L 580.85 134.56
  A 0.50 0.50 0.0 0 0 580.34 134.07
  Q 563.64 134.18 500.25 134.17
  C 478.65 134.17 460.57 116.73 460.62 94.73
  Q 460.65 79.25 460.67 15.46
  A 0.50 0.50 0.0 0 0 460.17 14.96
  L 441.75 15.00
  L 186.87 14.99
  A 0.56 0.55 0.0 0 0 186.31 15.54
  L 186.31 462.87
  A 0.43 0.43 0.0 0 0 187.05 463.18
  Q 210.60 439.76 235.00 414.25
  Q 255.61 392.71 259.90 388.16
  C 273.03 374.24 280.78 363.30 297.89 364.04
  C 307.68 364.47 315.08 369.79 322.31 377.16
  Q 337.26 392.38 345.35 400.34
  Q 351.94 406.82 366.41 422.31
  Q 383.19 440.27 404.11 461.44
  A 0.63 0.62 44.7 0 0 405.00 461.44
  Q 430.40 435.62 468.79 396.04
  C 480.12 384.37 495.13 381.76 508.93 390.85
  Q 511.99 392.87 518.10 399.21
  Q 544.98 427.07 574.49 456.76
  Q 577.74 460.03 580.47 462.18
  A 0.28 0.27 -71.1 0 0 580.91 461.96
  L 580.91 154.17
  Z
  M 150.30 36.75
  L 131.79 48.94
  A 1.07 1.07 0.0 0 0 131.36 50.17
  Q 131.93 51.94 131.95 53.25
  Q 132.11 69.05 131.96 293.60
  A 0.58 0.58 0.0 0 0 132.67 294.17
  Q 145.20 291.20 145.21 304.05
  Q 142.97 307.02 141.32 307.36
  Q 133.98 308.85 123.38 312.62
  Q 93.05 323.41 70.41 341.89
  C 57.09 352.76 44.98 366.76 40.81 383.03
  C 35.02 405.62 45.19 428.43 61.83 443.70
  C 63.89 445.60 66.38 446.79 68.38 447.97
  A 4.04 3.86 83.7 0 1 69.37 448.80
  Q 71.63 451.42 72.25 454.67
  C 73.17 459.48 74.76 463.54 77.96 466.61
  C 80.25 468.82 83.78 470.75 84.42 473.29
  Q 85.27 476.71 83.85 478.88
  Q 78.73 486.71 71.09 480.97
  Q 66.49 477.52 63.09 469.28
  A 0.39 0.39 0.0 0 0 62.41 469.21
  C 59.03 474.20 62.14 481.70 65.76 485.76
  C 79.36 501.04 99.58 491.68 111.64 480.38
  C 123.03 469.71 129.09 457.67 122.68 442.78
  Q 116.23 427.79 102.38 419.15
  Q 99.89 417.60 98.12 417.29
  A 2.08 2.07 37.2 0 0 96.93 417.45
  Q 86.77 422.16 81.80 429.08
  Q 80.67 430.65 77.87 435.33
  C 76.15 438.20 74.62 439.45 71.44 439.43
  Q 68.39 439.41 66.27 436.73
  C 62.79 432.32 65.39 428.12 68.10 423.43
  Q 72.50 415.81 79.98 410.59
  A 0.75 0.75 0.0 0 0 80.16 409.55
  C 74.03 400.88 76.21 388.92 81.39 380.36
  Q 86.92 371.24 96.02 364.74
  Q 115.60 350.76 139.29 345.36
  Q 141.64 344.82 143.74 345.56
  C 147.56 348.19 150.64 352.05 147.14 356.43
  Q 145.59 358.37 144.01 358.83
  Q 134.89 361.49 133.03 362.04
  A 1.38 1.37 81.8 0 0 132.05 363.36
  L 132.05 429.53
  A 6.54 6.47 30.8 0 0 132.86 432.67
  C 140.44 446.42 140.62 460.56 134.00 474.80
  A 9.81 9.58 60.3 0 0 133.11 478.22
  Q 132.55 485.55 133.22 493.75
  C 134.75 512.63 146.29 528.53 164.20 535.39
  C 173.81 539.05 183.49 539.17 193.82 538.75
  A 0.41 0.41 0.0 0 0 194.08 538.03
  Q 177.14 522.76 173.30 501.00
  Q 172.43 496.07 172.33 471.98
  Q 172.18 436.48 172.18 400.96
  C 171.59 256.26 171.76 118.17 171.88 22.94
  Q 171.88 21.95 170.99 21.96
  Q 170.21 21.98 169.86 22.99
  A 1.86 1.84 -7.8 0 1 169.14 23.93
  L 150.30 36.75
  Z
  M 570.39 119.00
  L 476.25 24.86
  A 0.39 0.39 0.0 0 0 475.59 25.06
  Q 475.43 25.91 475.42 27.25
  Q 475.31 49.26 475.25 84.68
  Q 475.23 95.68 475.49 97.30
  C 477.47 109.44 486.82 119.62 499.76 119.53
  Q 538.91 119.26 570.26 119.31
  A 0.18 0.18 0.0 0 0 570.39 119.00
  Z
  M 671.93 221.45
  C 673.47 217.84 678.67 215.64 682.44 214.09
  A 5.33 5.26 7.0 0 0 684.62 212.41
  Q 691.27 203.63 701.07 194.41
  C 703.70 191.93 708.69 187.07 710.21 183.79
  C 711.50 181.00 709.00 178.65 706.44 178.89
  C 700.55 179.42 694.33 183.16 689.89 186.99
  Q 675.87 199.07 666.19 214.34
  A 2.14 2.14 0.0 0 0 666.58 217.09
  Q 668.69 218.95 670.20 221.56
  A 0.97 0.97 0.0 0 0 671.93 221.45
  Z
  M 608.93 309.93
  L 595.72 321.35
  A 1.61 1.61 0.0 0 0 595.17 322.56
  L 595.17 361.58
  A 0.28 0.28 0.0 0 0 595.57 361.83
  Q 598.97 360.22 602.43 357.92
  Q 620.73 345.77 636.56 329.23
  Q 637.94 328.22 642.24 323.74
  Q 656.56 308.77 667.46 291.30
  A 0.30 0.29 -67.8 0 0 667.28 290.86
  C 663.47 290.00 655.92 287.66 653.46 284.55
  C 649.37 279.38 652.99 272.68 659.64 272.71
  A 3.14 3.08 -29.4 0 1 661.13 273.11
  C 663.23 274.30 665.03 275.82 667.24 276.57
  C 682.55 281.70 700.29 273.47 711.26 262.47
  C 719.89 253.80 725.83 239.22 715.27 229.40
  C 705.57 220.38 690.63 222.58 681.87 231.34
  C 676.77 236.44 677.44 245.80 684.38 248.82
  Q 687.60 250.23 690.81 250.01
  C 694.30 249.78 696.94 246.48 700.44 246.85
  C 705.22 247.34 707.95 252.09 706.37 256.60
  C 705.46 259.21 702.17 261.12 699.56 262.07
  Q 683.49 267.88 671.83 256.42
  A 2.45 2.44 61.3 0 0 669.63 255.77
  Q 662.75 257.16 659.98 251.34
  C 656.88 244.82 665.62 241.96 662.63 236.35
  Q 658.05 227.75 649.35 221.29
  Q 645.63 218.52 643.34 223.11
  C 638.90 232.02 641.03 243.94 642.44 254.45
  C 642.73 256.53 642.66 258.96 641.84 260.56
  Q 633.47 276.85 623.95 290.99
  C 619.76 297.20 614.04 303.75 608.93 309.93
  Z
  M 117.69 412.92
  L 117.69 368.37
  A 0.68 0.68 0.0 0 0 116.66 367.78
  Q 106.51 373.78 97.96 380.91
  A 4.93 4.72 88.7 0 0 97.10 381.85
  Q 93.90 386.56 92.14 390.61
  Q 89.54 396.58 91.71 402.04
  A 2.37 2.37 0.0 0 0 93.73 403.52
  C 98.58 403.88 102.45 404.17 106.94 406.63
  Q 113.25 410.09 117.00 413.24
  A 0.42 0.42 0.0 0 0 117.69 412.92
  Z
  M 268.03 399.57
  Q 245.30 423.07 222.92 446.43
  Q 203.65 466.55 189.36 480.86
  Q 186.78 483.45 186.71 485.49
  C 185.94 509.48 199.62 530.56 222.74 537.21
  Q 228.54 538.87 242.40 538.95
  C 303.24 539.30 364.19 539.14 425.29 538.96
  L 433.54 538.93
  L 530.05 539.16
  C 551.42 539.88 570.09 526.21 577.78 506.67
  C 580.10 500.76 580.73 494.26 580.97 487.50
  C 581.10 483.90 579.74 483.21 577.79 481.21
  Q 523.10 425.05 515.88 417.62
  Q 507.43 408.92 507.03 408.48
  C 500.32 401.24 495.59 397.24 486.79 400.14
  Q 483.92 401.09 478.25 406.67
  Q 472.52 412.33 466.77 418.32
  L 440.58 445.05
  L 415.41 471.42
  A 0.90 0.89 -44.0 0 0 415.38 472.63
  Q 422.30 480.49 429.42 486.89
  C 436.37 493.14 442.93 496.22 451.52 496.95
  Q 467.74 498.31 484.76 495.72
  Q 494.19 494.29 502.06 490.43
  Q 497.38 494.61 492.94 497.96
  C 482.43 505.89 470.03 511.65 456.30 510.76
  C 442.75 510.24 430.51 507.18 420.44 497.56
  C 407.50 485.22 385.34 461.79 362.43 438.49
  Q 321.40 396.74 313.42 388.26
  Q 306.17 380.55 302.68 379.18
  Q 295.75 376.46 289.20 379.27
  Q 286.36 380.49 278.29 388.98
  Q 273.16 394.37 268.03 399.57
  Z"
/>
<path fill="#c6dbf3" d="
  M 580.91 154.17
  Q 515.95 155.41 495.26 154.59
  Q 465.01 153.39 449.70 128.04
  Q 444.71 119.78 441.46 105.02
  Q 440.85 102.25 440.79 91.00
  C 440.70 74.19 441.19 56.09 440.91 37.84
  Q 440.78 29.17 441.08 19.00
  Q 441.14 17.07 441.75 15.00
  L 460.17 14.96
  A 0.50 0.50 0.0 0 1 460.67 15.46
  Q 460.65 79.25 460.62 94.73
  C 460.57 116.73 478.65 134.17 500.25 134.17
  Q 563.64 134.18 580.34 134.07
  A 0.50 0.50 0.0 0 1 580.85 134.56
  L 580.91 154.17
  Z"
/>
<path fill="#a0c8ee" d="
  M 172.18 400.96
  L 171.86 397.65
  A 0.93 0.92 -89.2 0 0 171.07 396.83
  L 151.78 394.16
  A 0.63 0.63 0.0 0 0 151.06 394.78
  Q 150.92 457.92 150.67 481.48
  C 150.58 490.04 150.89 498.73 152.14 505.15
  Q 155.22 520.97 164.98 534.01
  A 0.98 0.97 -36.1 0 1 164.76 535.39
  Q 164.70 535.44 164.20 535.39
  C 146.29 528.53 134.75 512.63 133.22 493.75
  Q 132.55 485.55 133.11 478.22
  A 9.81 9.58 60.3 0 1 134.00 474.80
  C 140.62 460.56 140.44 446.42 132.86 432.67
  A 6.54 6.47 30.8 0 1 132.05 429.53
  L 132.05 363.36
  A 1.38 1.37 81.8 0 1 133.03 362.04
  Q 134.89 361.49 144.01 358.83
  Q 145.59 358.37 147.14 356.43
  C 150.64 352.05 147.56 348.19 143.74 345.56
  Q 146.89 344.22 149.83 344.83
  A 1.79 1.78 -83.4 0 0 151.98 343.12
  Q 152.30 329.50 152.00 316.50
  Q 151.87 310.98 150.26 307.82
  C 150.45 305.67 150.75 303.32 150.70 301.30
  Q 150.24 282.73 150.93 263.49
  C 151.20 255.87 150.28 248.40 150.47 240.58
  Q 150.93 221.40 150.88 217.09
  C 150.82 212.74 150.33 207.83 150.47 204.24
  Q 151.12 187.98 150.66 174.68
  C 150.38 166.66 150.62 159.45 150.85 151.93
  Q 150.97 147.97 150.62 134.87
  Q 150.35 125.01 150.82 111.75
  C 151.10 103.64 150.42 93.68 150.58 84.76
  C 150.75 75.70 151.09 70.74 150.73 63.63
  Q 150.28 54.44 150.85 42.74
  C 150.94 40.86 150.61 38.68 150.30 36.75
  L 169.14 23.93
  A 1.86 1.84 -7.8 0 0 169.86 22.99
  Q 170.21 21.98 170.99 21.96
  Q 171.88 21.95 171.88 22.94
  C 171.76 118.17 171.59 256.26 172.18 400.96
  Z"
/>
<path fill="#0b0d29" d="
  M 117.43 22.32
  Q 117.64 22.25 117.76 22.42
  A 0.17 0.17 0.0 0 1 117.78 22.59
  Q 117.73 22.74 117.46 22.69
  A 0.19 0.19 0.0 0 1 117.43 22.32
  Z"
/>
<path fill="#c6dbf3" d="
  M 150.30 36.75
  C 150.61 38.68 150.94 40.86 150.85 42.74
  Q 150.28 54.44 150.73 63.63
  C 151.09 70.74 150.75 75.70 150.58 84.76
  C 150.42 93.68 151.10 103.64 150.82 111.75
  Q 150.35 125.01 150.62 134.87
  Q 150.97 147.97 150.85 151.93
  C 150.62 159.45 150.38 166.66 150.66 174.68
  Q 151.12 187.98 150.47 204.24
  C 150.33 207.83 150.82 212.74 150.88 217.09
  Q 150.93 221.40 150.47 240.58
  C 150.28 248.40 151.20 255.87 150.93 263.49
  Q 150.24 282.73 150.70 301.30
  C 150.75 303.32 150.45 305.67 150.26 307.82
  Q 147.91 305.20 145.21 304.05
  Q 145.20 291.20 132.67 294.17
  A 0.58 0.58 0.0 0 1 131.96 293.60
  Q 132.11 69.05 131.95 53.25
  Q 131.93 51.94 131.36 50.17
  A 1.07 1.07 0.0 0 1 131.79 48.94
  L 150.30 36.75
  Z"
/>
<ellipse fill="#5ce099" cx="0.00" cy="0.00" transform="translate(392.67,216.13) rotate(-116.6)" rx="39.86" ry="39.34"/>
<rect fill="#47cfc3" x="-11.76" y="-65.63" transform="translate(1558.49,249.03) rotate(0.1)" width="23.52" height="131.26" rx="0.58"/>
<rect fill="#0b0d29" x="-11.89" y="-61.55" transform="translate(897.27,252.65) rotate(-0.1)" width="23.78" height="123.10" rx="0.31"/>
<path fill="#47cfc3" d="
  M 1458.81 314.72
  L 1436.32 314.72
  A 0.58 0.58 0.0 0 1 1435.74 314.14
  L 1435.74 191.85
  A 0.58 0.58 0.0 0 1 1436.32 191.27
  L 1526.44 191.27
  A 0.58 0.58 0.0 0 1 1527.02 191.85
  L 1527.02 212.00
  A 0.58 0.58 0.0 0 1 1526.44 212.58
  L 1460.08 212.58
  A 0.58 0.58 0.0 0 0 1459.50 213.16
  L 1459.50 244.13
  A 0.58 0.58 0.0 0 0 1460.08 244.71
  L 1519.26 244.71
  A 0.58 0.58 0.0 0 1 1519.84 245.29
  L 1519.84 265.13
  A 0.58 0.58 0.0 0 1 1519.26 265.71
  L 1459.97 265.71
  A 0.58 0.58 0.0 0 0 1459.39 266.29
  L 1459.39 314.14
  A 0.58 0.58 0.0 0 1 1458.81 314.72
  Z"
/>
<path fill="#0b0d29" d="
  M 962.04 232.92
  C 966.72 224.13 975.57 219.73 985.18 218.91
  C 998.06 217.82 1012.05 222.26 1018.02 234.63
  A 0.22 0.22 0.0 0 0 1018.41 234.64
  C 1029.57 215.06 1060.93 212.71 1075.60 229.56
  C 1081.32 236.13 1083.38 246.02 1083.40 255.00
  Q 1083.44 270.40 1083.39 313.80
  A 0.48 0.48 0.0 0 1 1082.91 314.28
  L 1059.71 314.28
  A 0.42 0.42 0.0 0 1 1059.29 313.86
  Q 1059.07 272.14 1059.09 263.25
  C 1059.12 253.65 1055.79 243.99 1045.44 241.58
  C 1035.23 239.21 1026.47 244.74 1023.52 254.84
  Q 1022.38 258.73 1022.37 265.52
  Q 1022.28 312.41 1022.27 313.96
  A 0.37 0.37 0.0 0 1 1021.90 314.33
  L 998.98 314.33
  A 0.19 0.18 90.0 0 1 998.80 314.14
  Q 998.66 281.90 998.51 261.25
  C 998.33 234.47 962.03 233.98 961.71 261.29
  Q 961.38 288.91 961.58 313.70
  A 0.53 0.52 90.0 0 1 961.06 314.23
  L 937.92 314.23
  A 0.30 0.30 0.0 0 1 937.62 313.93
  L 937.62 220.96
  A 0.43 0.43 0.0 0 1 938.05 220.53
  L 960.79 220.53
  A 0.63 0.62 -0.0 0 1 961.42 221.15
  L 961.42 232.76
  A 0.33 0.33 0.0 0 0 962.04 232.92
  Z"
/>
<path fill="#0b0d29" d="
  M 1279.90 294.11
  A 0.41 0.41 0.0 0 0 1279.15 293.89
  Q 1267.86 311.00 1246.70 309.91
  C 1227.29 308.91 1213.56 297.46 1208.35 279.20
  C 1204.14 264.47 1206.17 248.29 1215.23 235.56
  C 1223.69 223.67 1238.19 217.50 1252.56 218.71
  Q 1269.46 220.14 1279.51 233.82
  A 0.26 0.26 0.0 0 0 1279.98 233.66
  L 1279.98 221.10
  A 0.60 0.60 0.0 0 1 1280.58 220.50
  L 1303.03 220.50
  A 0.62 0.62 0.0 0 1 1303.65 221.13
  Q 1303.53 246.00 1303.67 302.49
  C 1303.68 307.03 1302.52 314.48 1300.94 319.09
  C 1290.95 348.23 1256.26 353.02 1230.39 344.88
  Q 1220.22 341.69 1211.68 335.42
  A 0.84 0.83 32.2 0 1 1211.43 334.36
  L 1220.44 317.21
  A 0.53 0.53 0.0 0 1 1221.28 317.08
  Q 1225.56 321.30 1232.45 324.04
  C 1249.88 330.97 1277.23 330.35 1279.40 305.48
  Q 1279.93 299.35 1279.90 294.11
  Z
  M 1258.2579 238.8549
  A 25.61 24.72 -83.3 0 0 1230.7188 261.4059
  A 25.61 24.72 -83.3 0 0 1252.2821 289.7251
  A 25.61 24.72 -83.3 0 0 1279.8212 267.1741
  A 25.61 24.72 -83.3 0 0 1258.2579 238.8549
  Z"
/>
<path fill="#0b0d29" d="
  M 1347.71 276.75
  Q 1350.19 286.75 1357.13 291.65
  C 1367.85 299.22 1382.57 297.75 1393.03 289.75
  C 1394.32 288.76 1395.44 287.20 1396.57 286.35
  A 0.67 0.67 0.0 0 1 1397.49 286.45
  Q 1403.32 293.41 1410.57 298.51
  A 0.40 0.39 -52.7 0 1 1410.64 299.08
  Q 1396.15 316.76 1372.46 316.41
  C 1358.82 316.21 1343.46 310.96 1334.55 300.24
  C 1321.75 284.84 1320.22 262.88 1328.28 245.01
  C 1335.63 228.69 1351.27 218.76 1369.09 218.40
  Q 1392.34 217.92 1405.39 234.88
  C 1413.92 245.96 1416.12 261.35 1414.62 275.29
  A 0.96 0.96 0.0 0 1 1413.67 276.14
  L 1348.18 276.14
  A 0.49 0.49 0.0 0 0 1347.71 276.75
  Z
  M 1391.72 259.66
  Q 1391.39 256.12 1389.52 251.55
  Q 1384.64 239.56 1373.54 237.92
  Q 1365.79 236.78 1359.40 240.42
  C 1352.11 244.57 1348.54 251.30 1346.64 259.37
  A 0.48 0.47 -83.3 0 0 1347.10 259.96
  L 1391.45 259.96
  A 0.27 0.27 0.0 0 0 1391.72 259.66
  Z"
/>
<path fill="#0b0d29" d="
  M 1163.83 259.00
  Q 1163.91 247.85 1156.46 242.69
  C 1146.38 235.71 1128.37 239.49 1117.43 245.15
  A 0.49 0.49 0.0 0 1 1116.75 244.89
  L 1109.85 227.27
  A 0.70 0.69 -29.1 0 1 1110.09 226.46
  Q 1111.57 225.38 1113.92 224.46
  Q 1138.34 214.85 1162.00 220.88
  Q 1181.08 225.75 1186.48 245.25
  C 1187.79 249.99 1188.20 256.86 1188.17 262.64
  Q 1188.07 285.69 1187.83 313.68
  A 0.23 0.22 -0.0 0 1 1187.60 313.90
  L 1165.49 313.90
  A 0.67 0.67 0.0 0 1 1164.82 313.23
  L 1164.82 304.43
  A 0.27 0.27 0.0 0 0 1164.35 304.25
  Q 1154.57 315.44 1139.00 316.31
  C 1124.93 317.10 1109.32 312.15 1103.96 297.54
  Q 1099.16 284.44 1105.59 272.16
  C 1115.16 253.88 1146.26 255.49 1163.28 259.44
  A 0.45 0.45 0.0 0 0 1163.83 259.00
  Z
  M 1164.09 275.35
  A 0.94 0.93 -83.5 0 0 1163.44 274.53
  C 1153.85 271.55 1133.93 268.99 1127.70 279.70
  C 1123.57 286.80 1126.70 295.48 1134.42 298.17
  C 1142.96 301.14 1153.94 299.30 1160.27 292.51
  C 1164.74 287.70 1164.60 281.84 1164.09 275.35
  Z"
/>
<path fill="#47cfc3" d="
  M 1640.00 316.13
  C 1621.69 316.20 1603.99 307.51 1595.37 290.70
  C 1583.01 266.60 1592.08 236.91 1616.00 224.46
  Q 1626.81 218.84 1639.69 218.79
  C 1658.00 218.71 1675.71 227.41 1684.33 244.22
  C 1696.69 268.32 1687.62 298.01 1663.69 310.46
  Q 1652.88 316.08 1640.00 316.13
  Z
  M 1641.3058 239.1689
  A 28.39 26.15 -87.0 0 0 1613.7058 266.1514
  A 28.39 26.15 -87.0 0 0 1638.3342 295.8711
  A 28.39 26.15 -87.0 0 0 1665.9342 268.8886
  A 28.39 26.15 -87.0 0 0 1641.3058 239.1689
  Z"
/>
<path fill="#47cfc3" d="
  M 1740.13 284.35
  A 0.14 0.14 0.0 0 0 1740.40 284.35
  L 1761.36 221.59
  A 1.37 1.36 9.1 0 1 1762.66 220.66
  L 1780.99 220.66
  A 0.66 0.65 -9.3 0 1 1781.61 221.10
  L 1802.71 283.95
  A 0.38 0.38 0.0 0 0 1803.44 283.94
  L 1822.65 221.16
  A 0.53 0.52 -81.8 0 1 1823.15 220.78
  L 1845.83 220.78
  A 0.31 0.31 0.0 0 1 1846.13 221.19
  Q 1830.23 270.27 1814.57 314.22
  A 0.62 0.61 -79.5 0 1 1814.00 314.62
  L 1792.84 314.62
  A 0.82 0.80 80.3 0 1 1792.08 314.07
  L 1771.88 253.89
  A 0.69 0.69 0.0 0 0 1770.58 253.89
  L 1750.35 314.48
  A 0.48 0.47 9.4 0 1 1749.90 314.80
  L 1728.37 314.80
  A 0.76 0.76 0.0 0 1 1727.65 314.29
  L 1696.43 221.25
  A 0.37 0.36 -9.5 0 1 1696.78 220.77
  L 1719.52 220.77
  A 0.77 0.76 -8.8 0 1 1720.25 221.30
  L 1740.13 284.35
  Z"
/>
<path fill="#0b0d29" d="
  M 327.17 305.63
  C 327.02 318.09 323.13 329.98 314.09 338.58
  C 300.52 351.48 280.34 350.10 269.15 334.54
  C 262.84 325.77 260.65 315.58 260.77 304.87
  C 260.90 294.16 263.32 284.03 269.82 275.41
  C 281.37 260.11 301.58 259.19 314.84 272.40
  C 323.69 281.21 327.31 293.18 327.17 305.63
  Z
  M 306.6731 275.0994
  A 12.69 11.10 -86.1 0 0 294.7357 287.0050
  A 12.69 11.10 -86.1 0 0 304.9469 300.4206
  A 12.69 11.10 -86.1 0 0 316.8843 288.5150
  A 12.69 11.10 -86.1 0 0 306.6731 275.0994
  Z"
/>
<path fill="#0b0d29" d="
  M 471.00 298.57
  A 0.30 0.30 0.0 0 0 471.17 299.10
  Q 479.70 299.47 486.85 301.62
  Q 500.10 305.60 511.10 314.41
  C 513.30 316.17 516.39 319.00 516.80 321.72
  C 517.63 327.29 513.88 332.02 508.10 331.25
  Q 506.22 331.00 503.29 328.01
  C 491.03 315.44 468.02 310.78 451.28 314.98
  Q 446.26 316.25 444.37 315.63
  C 439.74 314.13 437.31 309.91 438.71 305.31
  Q 439.18 303.76 442.02 300.76
  Q 452.55 289.61 464.90 283.21
  C 477.86 276.50 491.11 272.12 505.82 271.11
  C 512.23 270.66 515.54 276.58 513.16 282.12
  C 512.10 284.59 509.95 285.23 507.20 285.52
  Q 489.54 287.42 473.68 296.69
  Q 472.39 297.44 471.00 298.57
  Z"
/>
<path fill="#c6dbf3" d="
  M 608.93 309.93
  Q 610.40 322.08 621.06 327.39
  A 4.86 4.58 63.4 0 0 621.99 327.73
  Q 628.69 329.34 636.56 329.23
  Q 620.73 345.77 602.43 357.92
  Q 598.97 360.22 595.57 361.83
  A 0.28 0.28 0.0 0 1 595.17 361.58
  L 595.17 322.56
  A 1.61 1.61 0.0 0 1 595.72 321.35
  L 608.93 309.93
  Z"
/>
<path fill="#0b0d29" d="
  M 338.90 378.57
  C 338.86 370.32 351.75 369.65 352.96 376.99
  C 353.76 381.80 354.97 386.02 357.50 389.63
  C 366.43 402.40 379.80 409.24 394.99 407.64
  C 410.74 405.98 424.05 396.03 426.33 379.82
  Q 426.95 375.43 428.15 374.20
  C 431.51 370.75 437.19 371.37 439.71 375.21
  C 442.72 379.82 439.32 390.29 437.32 394.91
  C 423.25 427.35 374.16 431.02 351.76 405.96
  C 345.02 398.41 338.95 388.00 338.90 378.57
  Z"
/>
<path fill="#5ce099" d="
  M 456.30 510.76
  C 452.09 519.74 448.41 528.79 445.87 538.31
  A 0.64 0.64 0.0 0 1 445.26 538.79
  L 433.54 538.93
  L 425.29 538.96
  Q 420.15 534.93 414.17 532.03
  A 10.00 9.92 76.2 0 1 412.58 531.06
  C 409.03 528.38 406.10 526.37 402.71 523.25
  Q 387.73 509.43 375.23 496.60
  Q 359.17 480.12 359.11 480.05
  Q 357.26 477.83 293.72 414.53
  Q 287.39 408.23 280.69 403.79
  Q 274.72 399.85 268.03 399.57
  Q 273.16 394.37 278.29 388.98
  Q 286.36 380.49 289.20 379.27
  Q 295.75 376.46 302.68 379.18
  Q 306.17 380.55 313.42 388.26
  Q 321.40 396.74 362.43 438.49
  C 385.34 461.79 407.50 485.22 420.44 497.56
  C 430.51 507.18 442.75 510.24 456.30 510.76
  Z"
/>
<path fill="#66a9ea" d="
  M 172.18 400.96
  Q 172.18 436.48 172.33 471.98
  Q 172.43 496.07 173.30 501.00
  Q 177.14 522.76 194.08 538.03
  A 0.41 0.41 0.0 0 1 193.82 538.75
  C 183.49 539.17 173.81 539.05 164.20 535.39
  Q 164.70 535.44 164.76 535.39
  A 0.98 0.97 -36.1 0 0 164.98 534.01
  Q 155.22 520.97 152.14 505.15
  C 150.89 498.73 150.58 490.04 150.67 481.48
  Q 150.92 457.92 151.06 394.78
  A 0.63 0.63 0.0 0 1 151.78 394.16
  L 171.07 396.83
  A 0.93 0.92 -89.2 0 1 171.86 397.65
  L 172.18 400.96
  Z"
/>
<path fill="#5ce099" d="
  M 530.05 539.16
  C 537.59 537.79 542.60 536.81 548.07 533.50
  Q 551.00 531.72 556.99 528.49
  C 560.70 526.49 569.12 519.93 569.51 515.21
  A 2.94 2.93 24.9 0 0 568.66 512.90
  Q 538.65 482.92 534.35 478.51
  Q 522.92 466.76 522.33 466.19
  Q 507.83 452.05 489.66 433.13
  Q 483.05 426.25 475.26 421.34
  A 8.58 8.35 69.3 0 0 473.40 420.47
  L 466.77 418.32
  Q 472.52 412.33 478.25 406.67
  Q 483.92 401.09 486.79 400.14
  C 495.59 397.24 500.32 401.24 507.03 408.48
  Q 507.43 408.92 515.88 417.62
  Q 523.10 425.05 577.79 481.21
  C 579.74 483.21 581.10 483.90 580.97 487.50
  C 580.73 494.26 580.10 500.76 577.78 506.67
  C 570.09 526.21 551.42 539.88 530.05 539.16
  Z"
/>
<path fill="#45ccaf" d="
  M 425.29 538.96
  C 364.19 539.14 303.24 539.30 242.40 538.95
  Q 228.54 538.87 222.74 537.21
  C 199.62 530.56 185.94 509.48 186.71 485.49
  Q 186.78 483.45 189.36 480.86
  Q 203.65 466.55 222.92 446.43
  Q 245.30 423.07 268.03 399.57
  Q 274.72 399.85 280.69 403.79
  Q 287.39 408.23 293.72 414.53
  Q 357.26 477.83 359.11 480.05
  Q 359.17 480.12 375.23 496.60
  Q 387.73 509.43 402.71 523.25
  C 406.10 526.37 409.03 528.38 412.58 531.06
  A 10.00 9.92 76.2 0 0 414.17 532.03
  Q 420.15 534.93 425.29 538.96
  Z"
/>
<path fill="#0b0d29" d="
  M 1052.96 443.06
  A 0.67 0.66 -56.5 0 1 1052.80 442.24
  L 1055.09 437.88
  A 0.54 0.54 0.0 0 1 1055.90 437.70
  Q 1059.75 440.71 1060.70 441.25
  C 1066.66 444.63 1076.30 446.28 1081.46 440.81
  C 1083.91 438.21 1083.71 434.35 1081.32 431.92
  Q 1079.49 430.06 1076.19 428.80
  C 1068.51 425.86 1052.74 424.62 1055.17 410.72
  C 1056.72 401.89 1065.48 399.00 1073.42 399.62
  Q 1081.09 400.23 1087.09 404.54
  A 1.27 1.27 0.0 0 1 1087.48 406.16
  L 1085.63 409.68
  A 0.82 0.82 0.0 0 1 1084.35 409.90
  Q 1078.25 404.21 1069.85 404.89
  C 1063.57 405.39 1057.92 411.07 1062.50 417.25
  C 1063.42 418.50 1066.88 420.03 1068.72 420.58
  C 1075.75 422.67 1082.32 423.94 1086.56 428.19
  C 1090.33 431.96 1090.38 438.53 1087.54 442.79
  Q 1084.27 447.69 1077.81 449.08
  Q 1063.96 452.06 1052.96 443.06
  Z"
/>
<path fill="#0b0d29" d="
  M 1111.32 406.15
  L 1111.32 421.07
  A 0.47 0.47 0.0 0 0 1111.79 421.54
  L 1137.64 421.54
  A 0.47 0.47 0.0 0 1 1138.11 422.01
  L 1138.11 426.66
  A 0.47 0.47 0.0 0 1 1137.64 427.13
  L 1111.89 427.13
  A 0.47 0.47 0.0 0 0 1111.42 427.60
  L 1111.42 443.07
  A 0.47 0.47 0.0 0 0 1111.89 443.54
  L 1141.35 443.54
  A 0.47 0.47 0.0 0 1 1141.82 444.01
  L 1141.82 449.06
  A 0.47 0.47 0.0 0 1 1141.35 449.53
  L 1105.57 449.53
  A 0.47 0.47 0.0 0 1 1105.10 449.06
  L 1105.10 400.47
  A 0.47 0.47 0.0 0 1 1105.57 400.00
  L 1140.45 400.00
  A 0.47 0.47 0.0 0 1 1140.92 400.47
  L 1140.92 405.21
  A 0.47 0.47 0.0 0 1 1140.45 405.68
  L 1111.79 405.68
  A 0.47 0.47 0.0 0 0 1111.32 406.15
  Z"
/>
<path fill="#0b0d29" d="
  M 1178.0385 399.8203
  A 25.12 24.62 -90.3 0 1 1202.7897 424.8111
  A 25.12 24.62 -90.3 0 1 1178.3015 450.0597
  A 25.12 24.62 -90.3 0 1 1153.5503 425.0689
  A 25.12 24.62 -90.3 0 1 1178.0385 399.8203
  Z
  M 1178.0223 405.0405
  A 19.72 18.47 -90.4 0 0 1159.6905 424.8889
  A 19.72 18.47 -90.4 0 0 1178.2977 444.4795
  A 19.72 18.47 -90.4 0 0 1196.6295 424.6311
  A 19.72 18.47 -90.4 0 0 1178.0223 405.0405
  Z"
/>
<path fill="#0b0d29" d="
  M 1261.9490 399.7325
  A 25.30 24.83 -94.9 0 1 1288.8493 422.8191
  A 25.30 24.83 -94.9 0 1 1266.2710 450.1475
  A 25.30 24.83 -94.9 0 1 1239.3707 427.0609
  A 25.30 24.83 -94.9 0 1 1261.9490 399.7325
  Z
  M 1263.9818 404.9811
  A 19.88 18.68 -90.6 0 0 1245.5110 425.0556
  A 19.88 18.68 -90.6 0 0 1264.3982 444.7389
  A 19.88 18.68 -90.6 0 0 1282.8690 424.6644
  A 19.88 18.68 -90.6 0 0 1263.9818 404.9811
  Z"
/>
<path fill="#0b0d29" d="
  M 1373.38 400.10
  Q 1383.21 400.08 1392.42 399.78
  A 0.58 0.57 89.0 0 1 1393.01 400.36
  L 1393.01 404.89
  A 0.56 0.55 -90.0 0 1 1392.46 405.45
  L 1376.92 405.45
  A 0.49 0.49 0.0 0 0 1376.43 405.94
  L 1376.43 449.43
  A 0.32 0.32 0.0 0 1 1376.11 449.75
  Q 1375.75 449.76 1373.42 449.76
  Q 1371.09 449.77 1370.73 449.76
  A 0.32 0.32 0.0 0 1 1370.41 449.44
  L 1370.33 405.95
  A 0.49 0.49 0.0 0 0 1369.84 405.46
  L 1354.30 405.48
  A 0.56 0.55 89.9 0 1 1353.75 404.93
  L 1353.74 400.40
  A 0.58 0.57 -89.1 0 1 1354.33 399.82
  Q 1363.54 400.09 1373.38 400.10
  Z"
/>
<rect fill="#0b0d29" x="1408.14" y="399.92" width="5.94" height="49.76" rx="0.50"/>
<path fill="#0b0d29" d="
  M 1477.87 410.52
  L 1461.11 442.42
  A 1.77 1.77 0.0 0 1 1457.97 442.42
  L 1441.25 410.23
  A 0.41 0.40 31.5 0 0 1440.48 410.41
  L 1440.48 449.25
  A 0.41 0.41 0.0 0 1 1440.07 449.66
  L 1434.74 449.66
  A 0.23 0.22 90.0 0 1 1434.52 449.43
  L 1434.52 400.79
  A 0.72 0.72 0.0 0 1 1435.24 400.07
  L 1441.47 400.07
  A 1.25 1.24 76.1 0 1 1442.57 400.74
  L 1459.34 433.02
  A 0.30 0.30 0.0 0 0 1459.88 433.02
  L 1476.97 400.50
  A 1.15 1.15 0.0 0 1 1477.99 399.88
  L 1483.38 399.88
  A 0.86 0.86 0.0 0 1 1484.24 400.74
  L 1484.24 449.42
  A 0.16 0.16 0.0 0 1 1484.08 449.58
  L 1478.75 449.58
  A 0.27 0.27 0.0 0 1 1478.48 449.31
  L 1478.48 410.67
  A 0.32 0.32 0.0 0 0 1477.87 410.52
  Z"
/>
<rect fill="#0b0d29" x="-3.10" y="-24.93" transform="translate(1507.94,424.77) rotate(0.1)" width="6.20" height="49.86" rx="0.63"/>
<path fill="#0b0d29" d="
  M 1535.77 443.70
  L 1566.81 443.70
  A 0.36 0.36 0.0 0 1 1567.17 444.06
  L 1567.17 449.21
  A 0.29 0.29 0.0 0 1 1566.88 449.50
  L 1528.16 449.50
  A 0.53 0.52 -2.3 0 1 1527.63 449.02
  Q 1527.36 445.27 1528.41 443.92
  Q 1546.30 421.05 1557.84 406.03
  A 0.20 0.19 18.1 0 0 1557.68 405.72
  L 1529.04 405.72
  A 0.66 0.66 0.0 0 1 1528.38 405.06
  L 1528.38 400.82
  A 0.77 0.77 0.0 0 1 1529.15 400.05
  L 1565.68 400.05
  A 0.71 0.70 -90.0 0 1 1566.38 400.76
  L 1566.38 403.87
  A 1.49 1.45 64.9 0 1 1566.06 404.79
  L 1535.65 443.46
  A 0.15 0.15 0.0 0 0 1535.77 443.70
  Z"
/>
<path fill="#0b0d29" d="
  M 1618.06 400.64
  L 1617.98 405.43
  A 0.45 0.45 0.0 0 1 1617.54 405.87
  L 1589.03 405.77
  A 0.62 0.61 -89.7 0 0 1588.42 406.38
  L 1588.39 421.14
  A 0.53 0.53 0.0 0 0 1588.91 421.67
  L 1614.52 421.63
  A 0.58 0.57 0.3 0 1 1615.10 422.21
  L 1615.10 426.75
  A 0.59 0.58 -0.1 0 1 1614.51 427.34
  L 1588.76 427.12
  A 0.38 0.38 0.0 0 0 1588.38 427.50
  L 1588.36 443.23
  A 0.47 0.46 89.1 0 0 1588.83 443.69
  L 1618.10 443.58
  A 0.60 0.60 0.0 0 1 1618.71 444.18
  L 1618.66 449.06
  A 0.56 0.56 0.0 0 1 1618.10 449.62
  L 1582.50 449.57
  A 0.51 0.51 0.0 0 1 1582.00 449.05
  L 1582.24 400.46
  A 0.40 0.40 0.0 0 1 1582.65 400.06
  L 1617.60 400.17
  A 0.46 0.46 0.0 0 1 1618.06 400.64
  Z"
/>
<path fill="#0b0d29" d="
  M 1673.81 449.61
  L 1666.97 449.61
  A 0.48 0.47 -17.0 0 1 1666.58 449.41
  L 1655.25 433.15
  A 1.15 1.14 -16.9 0 0 1654.30 432.65
  L 1640.49 432.65
  A 0.61 0.60 90.0 0 0 1639.89 433.26
  L 1639.89 448.96
  A 0.70 0.70 0.0 0 1 1639.19 449.66
  L 1634.56 449.66
  A 0.72 0.72 0.0 0 1 1633.84 448.94
  L 1633.84 400.80
  A 0.84 0.84 0.0 0 1 1634.69 399.96
  Q 1650.72 400.17 1651.21 400.15
  C 1663.53 399.62 1673.40 403.55 1672.47 417.98
  Q 1671.83 427.95 1661.96 431.41
  A 0.45 0.44 -27.4 0 0 1661.74 432.08
  L 1673.90 449.43
  A 0.11 0.11 0.0 0 1 1673.81 449.61
  Z
  M 1640.04 405.87
  L 1640.08 426.57
  A 0.34 0.34 0.0 0 0 1640.42 426.91
  L 1655.89 426.89
  A 10.83 9.87 -0.1 0 0 1666.70 417.00
  L 1666.70 415.36
  A 10.83 9.87 -0.1 0 0 1655.85 405.51
  L 1640.38 405.53
  A 0.34 0.34 0.0 0 0 1640.04 405.87
  Z"
/>
<path fill="#0b0d29" d="
  M 1311.27 449.10
  A 0.45 0.45 0.0 0 1 1310.82 449.55
  L 1305.60 449.55
  A 0.53 0.53 0.0 0 1 1305.07 449.02
  L 1305.07 400.62
  A 0.63 0.62 -88.7 0 1 1305.72 399.99
  Q 1313.50 400.30 1320.97 400.13
  Q 1329.64 399.93 1334.18 402.00
  Q 1342.94 406.03 1343.36 416.85
  C 1343.73 426.47 1336.56 433.27 1326.93 433.63
  Q 1320.59 433.86 1311.63 433.58
  A 0.35 0.35 0.0 0 0 1311.27 433.93
  L 1311.27 449.10
  Z
  M 1311.27 406.33
  L 1311.39 427.77
  A 0.47 0.47 0.0 0 0 1311.86 428.24
  L 1326.47 428.16
  A 10.82 10.55 -0.3 0 0 1337.23 417.55
  L 1337.23 416.27
  A 10.82 10.55 -0.3 0 0 1326.35 405.78
  L 1311.74 405.86
  A 0.47 0.47 0.0 0 0 1311.27 406.33
  Z"
/>
<path fill="#45ccaf" d="
  M 466.77 418.32
  L 473.40 420.47
  A 8.58 8.35 69.3 0 1 475.26 421.34
  Q 483.05 426.25 489.66 433.13
  Q 507.83 452.05 522.33 466.19
  Q 522.92 466.76 534.35 478.51
  Q 538.65 482.92 568.66 512.90
  A 2.94 2.93 24.9 0 1 569.51 515.21
  C 569.12 519.93 560.70 526.49 556.99 528.49
  Q 551.00 531.72 548.07 533.50
  C 542.60 536.81 537.59 537.79 530.05 539.16
  L 433.54 538.93
  L 445.26 538.79
  A 0.64 0.64 0.0 0 0 445.87 538.31
  C 448.41 528.79 452.09 519.74 456.30 510.76
  C 470.03 511.65 482.43 505.89 492.94 497.96
  Q 497.38 494.61 502.06 490.43
  Q 502.79 490.35 503.39 489.08
  A 0.35 0.35 0.0 0 0 503.10 488.58
  Q 495.75 488.01 493.50 487.04
  Q 461.22 473.21 440.58 445.05
  L 466.77 418.32
  Z"
/>
<path fill="#2aa4aa" d="
  M 440.58 445.05
  Q 461.22 473.21 493.50 487.04
  Q 495.75 488.01 503.10 488.58
  A 0.35 0.35 0.0 0 1 503.39 489.08
  Q 502.79 490.35 502.06 490.43
  Q 494.19 494.29 484.76 495.72
  Q 467.74 498.31 451.52 496.95
  C 442.93 496.22 436.37 493.14 429.42 486.89
  Q 422.30 480.49 415.38 472.63
  A 0.90 0.89 -44.0 0 1 415.41 471.42
  L 440.58 445.05
  Z"
/>
</svg>
