<?xml version="1.0" standalone="no"?>
<!DOCTYPE svg PUBLIC "-//W3C//DTD SVG 20010904//EN"
 "http://www.w3.org/TR/2001/REC-SVG-20010904/DTD/svg10.dtd">
<svg version="1.0" xmlns="http://www.w3.org/2000/svg"
 width="243.000000pt" height="233.000000pt" viewBox="0 0 243.000000 233.000000"
 preserveAspectRatio="xMidYMid meet">
<metadata>
Created by potrace 1.16, written by Peter Selinger 2001-2019
</metadata>
<g transform="translate(0.000000,233.000000) scale(0.100000,-0.100000)"
fill="#000000" stroke="none">
<path d="M407 2099 c-81 -19 -140 -70 -179 -154 l-23 -50 0 -710 c0 -539 3
-720 12 -751 21 -67 65 -119 130 -150 l58 -29 770 0 770 0 60 30 c73 37 109
82 130 160 23 90 23 1396 -1 1474 -19 64 -74 127 -141 161 l-48 25 -750 2
c-424 1 -766 -3 -788 -8z m1533 -154 c62 -32 60 -11 60 -565 l0 -506 -222 222
c-123 122 -236 227 -251 233 -20 8 -34 8 -50 0 -12 -6 -104 -95 -203 -198
-212 -217 -175 -208 -323 -73 -68 61 -98 82 -118 82 -23 0 -68 -41 -252 -225
-124 -124 -226 -225 -228 -225 -2 0 -3 266 -3 590 0 645 -1 632 58 664 41 23
1489 23 1532 1z m-322 -887 c57 -57 167 -170 243 -253 l139 -149 0 -88 c0 -98
-10 -128 -49 -151 -24 -14 -106 -16 -768 -18 -664 -1 -743 1 -771 15 -34 17
-52 43 -52 73 0 19 459 473 478 473 5 0 57 -45 115 -100 71 -68 113 -100 129
-100 17 0 73 51 218 199 107 110 199 200 204 200 5 1 56 -45 114 -101z"/>
<path d="M874 1688 c-185 -125 -96 -419 126 -418 78 1 178 78 199 157 44 159
-54 292 -215 293 -53 0 -68 -4 -110 -32z m171 -133 c49 -48 17 -135 -48 -135
-47 1 -69 22 -74 73 -5 39 -2 46 22 65 36 29 70 28 100 -3z"/>
</g>
</svg>
