<?xml version="1.0" encoding="UTF-8" standalone="no"?>
<!DOCTYPE svg PUBLIC "-//W3C//DTD SVG 1.1//EN" "http://www.w3.org/Graphics/SVG/1.1/DTD/svg11.dtd">
<svg xmlns="http://www.w3.org/2000/svg" version="1.1" viewBox="0.00 0.00 1192.00 164.00">
<path fill="#000000" d="
  M 550.24 1.21
  C 562.88 1.22 572.10 8.83 575.55 20.63
  A 0.74 0.73 81.8 0 1 574.85 21.57
  L 562.50 21.57
  A 2.95 2.94 90.0 0 0 559.56 24.52
  L 559.56 24.80
  A 2.56 2.56 0.0 0 0 562.12 27.36
  L 575.50 27.36
  A 0.94 0.94 0.0 0 1 576.44 28.30
  L 576.44 33.89
  A 1.04 1.03 -0.0 0 1 575.40 34.92
  L 562.08 34.92
  A 2.53 2.53 0.0 0 0 559.56 37.64
  L 559.59 38.08
  A 2.72 2.71 -2.2 0 0 562.30 40.59
  L 575.59 40.59
  A 0.84 0.84 0.0 0 1 576.43 41.43
  L 576.43 46.99
  A 0.91 0.91 0.0 0 1 575.52 47.90
  L 562.48 47.90
  A 2.87 2.87 0.0 0 0 559.61 50.75
  L 559.60 51.05
  A 2.71 2.70 -89.8 0 0 562.30 53.78
  L 576.12 53.78
  A 0.29 0.29 0.0 0 1 576.41 54.06
  Q 576.47 61.73 576.34 85.48
  C 576.26 99.45 564.42 111.82 550.18 111.81
  C 535.93 111.80 524.10 99.42 524.04 85.45
  Q 523.94 61.70 524.01 54.03
  A 0.29 0.29 0.0 0 1 524.30 53.75
  L 538.12 53.77
  A 2.71 2.70 89.9 0 0 540.82 51.04
  L 540.81 50.74
  A 2.87 2.87 0.0 0 0 537.95 47.89
  L 524.91 47.87
  A 0.91 0.91 0.0 0 1 524.00 46.96
  L 524.00 41.40
  A 0.84 0.84 0.0 0 1 524.85 40.56
  L 538.14 40.58
  A 2.72 2.71 2.2 0 0 540.85 38.07
  L 540.88 37.63
  A 2.53 2.53 0.0 0 0 538.36 34.91
  L 525.04 34.89
  A 1.04 1.03 0.1 0 1 524.00 33.86
  L 524.01 28.27
  A 0.94 0.94 0.0 0 1 524.95 27.33
  L 538.33 27.35
  A 2.56 2.56 0.0 0 0 540.89 24.79
  L 540.89 24.51
  A 2.95 2.94 -89.9 0 0 537.96 21.56
  L 525.61 21.54
  A 0.74 0.73 -81.8 0 1 524.90 20.60
  C 528.37 8.80 537.60 1.21 550.24 1.21
  Z
  M 548.46 65.94
  A 0.75 0.75 0.0 0 0 547.36 66.60
  L 547.35 84.04
  A 0.74 0.73 4.1 0 1 546.51 84.76
  Q 541.80 84.08 538.52 87.60
  A 2.52 2.42 -41.7 0 0 538.28 90.74
  C 541.18 94.74 546.35 92.88 548.67 89.19
  Q 549.68 87.59 549.54 84.14
  Q 549.42 81.26 549.45 67.56
  A 1.80 1.79 -75.8 0 0 548.50 65.96
  L 548.46 65.94
  Z
  M 569.33 69.19
  A 0.95 0.94 -9.1 0 0 568.08 68.29
  L 557.32 71.86
  A 1.47 1.46 80.9 0 0 556.32 73.25
  L 556.32 91.56
  A 0.81 0.80 -82.5 0 1 555.31 92.34
  Q 552.11 91.50 549.72 93.65
  Q 547.01 96.09 549.19 98.09
  C 552.98 101.59 558.11 97.82 558.08 93.41
  Q 557.99 78.66 557.97 78.45
  A 2.23 2.22 79.0 0 1 559.52 76.14
  L 566.33 74.02
  A 1.20 1.19 -8.6 0 1 567.88 75.16
  L 567.88 82.16
  A 1.37 1.36 -87.0 0 1 566.38 83.52
  Q 563.43 83.22 561.48 85.41
  A 2.44 2.13 -44.3 0 0 561.24 88.37
  Q 563.00 90.54 565.93 89.43
  Q 569.40 88.10 569.35 83.94
  Q 569.26 76.19 569.33 69.19
  Z"
/>
<path fill="#8e5a98" d="
  M 29.60 164.00
  Q 29.49 163.98 29.37 164.00
  Q 20.44 163.09 16.63 161.16
  Q 2.29 153.89 0.98 137.77
  Q 0.45 131.25 0.00 124.75
  L 0.00 65.86
  Q 0.29 62.81 0.48 59.75
  C 1.38 44.99 8.58 32.46 24.11 30.10
  C 31.49 28.97 41.72 30.59 47.69 35.21
  C 55.41 41.20 57.71 50.85 58.17 60.52
  Q 58.33 63.91 57.14 67.34
  A 2.48 2.48 0.0 0 1 54.80 69.00
  L 43.75 69.00
  A 1.04 1.03 82.8 0 1 42.75 68.22
  Q 42.10 65.74 42.11 65.26
  C 42.21 59.76 42.16 49.42 36.97 46.24
  Q 31.29 42.76 24.31 45.41
  C 17.00 48.17 16.83 57.84 16.93 64.50
  Q 16.99 68.44 17.03 131.00
  Q 17.03 136.24 18.68 141.80
  C 20.62 148.31 26.26 149.68 32.41 148.89
  C 44.26 147.36 41.36 134.18 42.58 126.20
  A 1.47 1.47 0.0 0 1 44.03 124.95
  L 54.46 124.95
  A 2.90 2.90 0.0 0 1 57.19 126.87
  C 59.29 132.69 57.54 143.92 54.49 149.36
  Q 50.30 156.82 45.45 159.73
  Q 39.56 163.26 29.60 164.00
  Z"
/>
<path fill="#8e5a98" d="
  M 771.99 109.75
  Q 771.96 143.32 772.03 157.77
  Q 772.04 160.06 770.75 160.76
  A 1.95 1.90 -59.1 0 1 769.88 160.99
  Q 760.51 161.04 758.27 160.95
  C 755.60 160.85 756.00 158.79 756.00 156.52
  Q 756.01 93.71 756.00 71.60
  C 756.00 62.67 755.56 52.15 755.04 42.26
  Q 754.83 38.33 756.47 32.90
  A 1.80 1.74 78.9 0 1 757.00 32.08
  Q 758.16 31.06 759.76 31.02
  C 769.79 30.72 779.31 30.46 788.41 32.30
  C 799.17 34.48 807.29 42.43 809.30 52.93
  Q 812.56 69.95 809.35 85.84
  C 807.11 96.97 799.96 105.92 788.54 108.27
  C 783.28 109.35 777.79 108.93 772.71 109.02
  A 0.73 0.73 0.0 0 0 771.99 109.75
  Z
  M 772.05 47.13
  L 771.97 93.01
  A 1.35 1.35 0.0 0 0 773.32 94.36
  L 780.35 94.38
  A 13.92 13.64 -89.9 0 0 794.01 80.48
  L 794.05 59.74
  A 13.92 13.64 -89.9 0 0 780.43 45.80
  L 773.40 45.78
  A 1.35 1.35 0.0 0 0 772.05 47.13
  Z"
/>
<path fill="#8e5a98" d="
  M 66.71 161.04
  C 66.37 158.52 67.13 155.63 67.60 152.94
  Q 77.57 95.81 87.99 37.23
  Q 88.35 35.19 88.97 33.20
  A 2.76 2.75 -84.3 0 1 91.31 31.28
  Q 98.92 30.46 107.30 31.20
  A 1.98 1.96 68.0 0 1 108.41 31.68
  Q 109.87 32.95 110.26 35.00
  Q 112.84 48.48 131.12 147.64
  Q 132.50 155.16 132.97 160.10
  A 1.78 1.78 0.0 0 1 131.20 162.04
  L 118.96 162.04
  A 1.46 1.46 0.0 0 1 117.52 160.83
  L 112.46 131.74
  A 1.98 1.98 0.0 0 0 110.62 130.10
  Q 99.64 129.49 89.02 130.19
  Q 86.74 130.34 86.38 132.60
  Q 84.08 146.81 81.42 160.72
  A 1.62 1.61 5.4 0 1 79.83 162.03
  L 67.83 162.03
  A 1.14 1.13 86.2 0 1 66.71 161.04
  Z
  M 99.26 57.27
  L 89.43 115.16
  A 1.48 1.47 5.4 0 0 90.86 116.88
  Q 97.71 116.98 105.50 117.01
  Q 107.73 117.03 109.00 116.53
  A 1.16 1.15 -16.0 0 0 109.71 115.25
  Q 104.98 89.63 100.81 63.63
  Q 100.48 61.56 99.66 61.13
  A 0.50 0.50 0.0 0 1 99.45 60.45
  Q 100.17 59.07 99.65 57.25
  A 0.20 0.20 0.0 0 0 99.26 57.27
  Z"
/>
<path fill="#8e5a98" d="
  M 191.29 118.40
  Q 191.97 116.32 192.01 113.50
  Q 192.26 97.86 191.61 82.14
  C 190.92 65.29 190.66 50.16 191.12 34.65
  Q 191.23 31.29 194.75 31.07
  Q 200.23 30.73 205.12 31.19
  A 2.84 2.84 0.0 0 1 207.58 33.22
  Q 208.00 34.63 208.00 37.25
  Q 208.01 136.14 207.96 158.19
  Q 207.95 161.51 204.53 161.88
  Q 198.76 162.51 193.40 161.81
  A 1.15 1.14 83.5 0 1 192.48 161.07
  L 162.55 78.84
  A 0.08 0.08 0.0 0 0 162.45 78.80
  L 162.20 78.89
  A 0.06 0.06 0.0 0 0 162.17 78.98
  Q 162.50 79.54 162.29 82.50
  Q 161.81 89.55 161.98 101.17
  C 162.23 117.87 161.85 132.43 162.35 147.77
  C 162.48 151.59 163.46 156.13 162.27 160.01
  A 2.62 2.60 4.8 0 1 160.09 161.84
  Q 154.27 162.56 148.56 161.74
  A 2.65 2.64 84.2 0 1 146.46 160.02
  Q 145.99 158.71 145.98 156.25
  Q 145.94 119.87 145.93 39.75
  Q 145.93 34.22 146.56 32.70
  A 1.82 1.81 87.2 0 1 147.40 31.77
  C 149.14 30.84 151.82 30.88 153.90 30.92
  C 157.03 30.98 160.06 31.18 161.07 34.47
  Q 162.65 39.63 163.79 42.70
  Q 177.18 78.87 190.94 118.40
  A 0.19 0.18 44.7 0 0 191.29 118.40
  Z"
/>
<path fill="#8e5a98" d="
  M 260.32 45.99
  A 0.32 0.32 0.0 0 0 260.00 46.31
  Q 260.00 124.21 260.00 159.00
  C 260.00 161.33 259.30 162.02 257.03 162.02
  Q 250.40 162.01 244.95 161.97
  A 1.97 1.96 -89.9 0 1 243.00 160.00
  L 243.00 46.95
  A 0.99 0.99 0.0 0 0 242.01 45.96
  Q 230.82 46.03 225.76 45.98
  Q 223.71 45.96 222.52 45.27
  A 1.71 1.68 2.1 0 1 221.83 44.54
  C 219.55 40.06 219.89 36.52 221.31 32.32
  A 1.95 1.94 -80.6 0 1 223.15 31.00
  L 278.31 31.00
  A 1.06 1.06 0.0 0 1 279.34 31.80
  Q 280.67 37.16 279.85 42.88
  C 279.47 45.52 277.56 45.97 275.08 45.99
  Q 270.28 46.02 260.32 45.99
  Z"
/>
<path fill="#8e5a98" d="
  M 314.65 30.89
  Q 318.33 30.88 322.00 31.06
  Q 324.98 31.21 325.54 34.26
  Q 337.09 97.73 347.69 154.75
  Q 348.27 157.87 347.83 160.62
  A 1.58 1.57 -85.5 0 1 346.28 161.95
  L 335.38 161.95
  A 2.56 2.55 -6.9 0 1 332.90 160.01
  Q 332.08 156.70 327.85 132.12
  Q 327.49 129.99 325.45 129.95
  Q 319.89 129.82 314.91 129.84
  Q 309.92 129.85 304.37 130.00
  Q 302.33 130.06 301.98 132.19
  Q 297.88 156.79 297.08 160.10
  A 2.56 2.55 6.6 0 1 294.61 162.06
  L 283.71 162.11
  A 1.58 1.57 85.2 0 1 282.15 160.79
  Q 281.69 158.05 282.26 154.92
  Q 292.56 97.85 303.77 34.32
  Q 304.32 31.26 307.30 31.10
  Q 310.97 30.90 314.65 30.89
  Z
  M 315.00 116.93
  Q 322.98 116.91 323.92 116.88
  A 0.84 0.84 0.0 0 0 324.67 116.35
  Q 325.27 114.77 324.90 112.84
  Q 320.80 91.39 315.25 56.24
  Q 315.10 55.31 314.89 55.31
  Q 314.68 55.31 314.53 56.24
  Q 309.11 91.41 305.09 112.88
  Q 304.73 114.81 305.34 116.39
  A 0.84 0.84 0.0 0 0 306.09 116.92
  Q 307.03 116.94 315.00 116.93
  Z"
/>
<path fill="#8e5a98" d="
  M 377.45 111.76
  C 378.33 113.94 377.35 116.09 377.26 118.42
  Q 376.54 136.80 377.81 155.99
  Q 377.94 158.06 376.40 161.22
  A 1.03 1.01 9.1 0 1 375.61 161.78
  Q 370.91 162.39 365.95 162.00
  C 363.86 161.84 361.91 161.82 361.38 159.79
  Q 360.96 158.18 360.96 157.63
  Q 360.94 40.42 361.00 38.75
  Q 361.15 34.66 361.43 33.36
  A 2.84 2.84 0.0 0 1 364.09 31.12
  Q 374.52 30.73 387.68 31.10
  Q 389.57 31.15 393.25 31.74
  Q 406.99 33.92 413.21 45.83
  C 416.71 52.52 417.32 60.42 417.31 68.76
  C 417.31 78.82 417.06 90.58 410.43 98.90
  Q 407.20 102.95 402.55 106.06
  A 1.67 1.65 -27.1 0 0 401.91 108.01
  L 420.48 159.02
  A 2.24 2.24 0.0 0 1 418.37 162.02
  L 406.23 162.02
  A 2.96 2.96 0.0 0 1 403.42 159.99
  L 387.36 111.65
  A 2.30 2.29 -4.6 0 0 385.54 110.11
  Q 382.28 109.61 378.30 110.25
  A 1.11 1.11 0.0 0 0 377.45 111.76
  Z
  M 377.96 47.93
  L 378.04 93.03
  A 2.10 2.10 0.0 0 0 380.14 95.13
  L 387.10 95.11
  A 16.24 13.76 89.9 0 0 400.83 78.85
  L 400.81 62.03
  A 16.24 13.76 89.9 0 0 387.02 45.81
  L 380.06 45.83
  A 2.10 2.10 0.0 0 0 377.96 47.93
  Z"
/>
<path fill="#8e5a98" d="
  M 452.72 147.00
  Q 472.90 147.01 480.01 147.01
  Q 482.59 147.01 483.19 149.29
  Q 484.10 152.77 484.11 156.78
  C 484.12 161.15 482.40 162.02 478.13 162.01
  Q 467.46 161.99 438.75 162.00
  C 435.61 162.00 436.03 160.07 436.02 157.42
  Q 435.94 137.61 436.01 108.44
  C 436.04 95.80 435.64 86.29 435.14 71.72
  Q 434.62 56.65 435.13 36.79
  Q 435.20 34.46 435.95 32.54
  A 2.39 2.39 0.0 0 1 438.18 31.01
  L 479.93 31.01
  A 2.07 2.06 -90.0 0 1 481.99 33.08
  L 481.99 43.82
  A 2.18 2.17 0.0 0 1 479.81 45.99
  L 452.31 45.99
  A 0.32 0.31 -90.0 0 0 452.00 46.31
  L 452.00 87.22
  A 0.79 0.79 0.0 0 0 452.79 88.01
  Q 465.54 87.96 474.68 88.06
  C 476.79 88.09 477.94 90.01 477.97 92.21
  Q 478.05 97.64 477.95 101.02
  A 2.03 2.03 0.0 0 1 475.92 103.00
  L 453.96 103.00
  A 1.31 1.27 27.5 0 0 453.25 103.21
  C 451.66 104.23 452.03 105.52 452.02 107.14
  Q 451.93 129.02 452.03 146.31
  A 0.69 0.69 0.0 0 0 452.72 147.00
  Z"
/>
<path fill="#8e5a98" d="
  M 662.11 106.07
  Q 667.55 122.09 678.11 150.67
  Q 679.67 154.92 679.99 159.11
  A 1.77 1.77 0.0 0 1 678.23 161.01
  L 666.33 161.01
  A 2.47 2.46 -10.6 0 1 664.03 159.44
  C 658.27 144.78 653.39 128.77 648.16 111.61
  Q 647.38 109.05 644.84 108.95
  Q 641.79 108.83 639.51 109.31
  A 1.91 1.91 0.0 0 0 637.99 111.18
  L 637.99 158.95
  A 2.02 2.02 0.0 0 1 635.97 160.97
  L 623.94 160.97
  A 1.96 1.96 0.0 0 1 621.98 159.01
  Q 622.03 83.73 621.98 38.25
  Q 621.98 35.20 622.42 33.15
  A 2.51 2.50 -85.4 0 1 624.72 31.19
  Q 636.88 30.50 649.59 31.60
  C 656.91 32.23 661.70 34.16 667.19 38.06
  C 673.11 42.27 676.40 51.12 677.13 57.87
  Q 678.35 69.20 677.68 76.95
  C 676.58 89.77 672.62 98.30 662.31 105.47
  A 0.52 0.51 63.8 0 0 662.11 106.07
  Z
  M 637.89 47.26
  L 638.13 93.14
  A 1.31 1.31 0.0 0 0 639.45 94.44
  L 646.52 94.41
  A 14.88 14.64 89.7 0 0 661.08 79.45
  L 660.98 60.71
  A 14.88 14.64 89.7 0 0 646.26 45.91
  L 639.19 45.94
  A 1.31 1.31 0.0 0 0 637.89 47.26
  Z"
/>
<path fill="#8e5a98" d="
  M 711.67 87.93
  Q 714.81 88.10 733.00 87.99
  Q 736.00 87.97 736.00 90.46
  Q 736.00 92.97 736.01 95.69
  C 736.02 99.54 736.61 102.35 732.18 102.63
  Q 722.95 103.22 711.56 102.95
  A 0.55 0.55 0.0 0 0 711.00 103.50
  L 711.00 145.55
  A 0.47 0.47 0.0 0 0 711.47 146.02
  L 740.19 146.02
  A 1.75 1.75 0.0 0 1 741.94 147.77
  L 741.94 158.72
  A 2.27 2.27 0.0 0 1 739.67 160.99
  Q 714.43 161.03 697.99 160.96
  Q 695.29 160.95 694.73 158.73
  Q 694.17 156.55 694.11 153.50
  Q 693.64 128.25 694.23 107.54
  Q 694.68 91.58 694.22 79.97
  Q 693.67 66.21 694.06 37.51
  C 694.10 34.38 694.45 31.37 698.00 31.22
  Q 707.77 30.80 735.48 31.08
  Q 737.24 31.10 739.35 31.76
  A 0.89 0.89 0.0 0 1 739.97 32.61
  L 740.02 43.76
  A 2.22 2.21 64.2 0 1 739.53 45.18
  Q 738.82 46.06 736.76 46.03
  Q 732.01 45.96 711.64 46.00
  A 0.64 0.64 0.0 0 0 711.00 46.64
  L 711.00 87.23
  A 0.70 0.70 0.0 0 0 711.67 87.93
  Z"
/>
<path fill="#8e5a98" d="
  M 872.11 146.89
  Q 872.96 150.23 873.02 153.55
  C 873.10 157.39 873.41 161.14 868.66 160.93
  Q 868.62 160.93 867.37 160.94
  Q 845.55 161.12 828.05 160.90
  A 2.49 2.48 83.8 0 1 825.66 158.97
  Q 824.98 156.08 824.99 151.50
  Q 825.04 109.68 824.94 41.00
  Q 824.93 39.14 825.09 34.85
  Q 825.24 31.06 829.25 31.04
  Q 847.66 30.96 865.27 31.02
  C 868.69 31.03 870.64 31.06 870.96 35.21
  Q 871.10 36.98 871.73 41.67
  A 2.74 2.69 44.4 0 1 871.74 42.19
  Q 871.49 46.13 867.07 46.06
  Q 858.72 45.93 842.29 46.01
  A 0.30 0.29 -90.0 0 0 842.00 46.31
  L 842.00 87.09
  A 0.92 0.92 0.0 0 0 842.92 88.01
  L 865.09 88.01
  A 1.30 1.30 0.0 0 1 866.35 88.99
  Q 867.08 91.73 867.02 95.83
  C 866.97 99.62 867.34 102.92 863.01 102.96
  Q 854.71 103.03 842.31 102.99
  A 0.31 0.31 0.0 0 0 842.00 103.30
  L 842.00 145.16
  A 0.85 0.85 0.0 0 0 842.85 146.01
  L 870.98 146.01
  A 1.18 1.17 82.6 0 1 872.11 146.89
  Z"
/>
<path fill="#8e5a98" d="
  M 903.75 146.01
  L 931.14 146.01
  A 1.85 1.85 0.0 0 1 932.99 147.86
  L 932.99 158.89
  A 2.07 2.06 -0.1 0 1 930.93 160.95
  Q 909.71 161.07 891.14 160.94
  C 889.20 160.93 887.38 161.20 886.95 158.84
  C 886.29 155.26 886.02 152.85 886.28 149.05
  Q 886.99 138.75 886.99 129.50
  Q 887.03 70.13 886.95 40.00
  Q 886.94 35.92 887.31 32.09
  A 1.19 1.18 2.7 0 1 888.49 31.02
  L 900.05 31.08
  A 2.66 2.66 0.0 0 1 902.60 33.04
  Q 903.03 34.63 903.03 39.00
  Q 902.92 113.84 903.05 145.31
  A 0.70 0.70 0.0 0 0 903.75 146.01
  Z"
/>
<path fill="#8e5a98" d="
  M 962.00 103.76
  L 962.00 145.20
  A 0.81 0.81 0.0 0 0 962.81 146.01
  L 989.83 146.01
  A 2.05 2.04 -11.2 0 1 991.72 147.27
  Q 993.33 151.16 992.95 156.79
  Q 992.78 159.40 991.95 159.99
  A 5.79 1.39 -34.4 0 1 991.28 160.46
  Q 990.55 160.97 987.02 160.98
  Q 964.91 161.06 947.82 160.92
  A 1.03 1.01 -12.1 0 1 946.89 160.33
  Q 945.98 158.32 945.98 155.25
  Q 946.08 74.03 945.96 38.57
  Q 945.95 35.69 946.42 33.29
  A 2.64 2.63 4.8 0 1 948.96 31.15
  Q 962.40 30.89 982.74 31.03
  C 985.46 31.05 987.82 30.90 990.31 31.86
  A 1.04 1.03 -79.8 0 1 990.98 32.83
  L 990.98 44.02
  A 1.98 1.97 90.0 0 1 989.01 46.00
  L 964.01 46.00
  A 2.01 2.01 0.0 0 0 962.00 48.01
  L 962.00 87.01
  A 1.00 1.00 0.0 0 0 963.00 88.01
  L 984.50 88.01
  A 2.92 2.91 -9.1 0 1 987.27 90.01
  Q 988.56 93.93 987.84 98.80
  C 987.29 102.44 984.94 103.17 981.74 102.52
  Q 979.32 102.04 975.63 102.58
  C 971.52 103.18 966.13 102.94 962.69 103.05
  A 0.71 0.71 0.0 0 0 962.00 103.76
  Z"
/>
<path fill="#8e5a98" d="
  M 1022.95 78.83
  A 0.38 0.38 0.0 0 0 1022.32 79.10
  Q 1021.80 90.77 1021.92 101.25
  C 1022.03 111.15 1023.11 128.13 1023.03 141.17
  C 1022.97 150.10 1023.36 155.89 1022.35 160.02
  A 1.17 1.17 0.0 0 1 1021.27 160.91
  Q 1015.00 161.15 1009.40 160.93
  C 1006.72 160.83 1007.00 158.70 1007.00 156.58
  Q 1007.05 74.69 1006.93 37.75
  Q 1006.92 34.38 1007.36 32.42
  A 0.98 0.97 89.1 0 1 1008.06 31.69
  Q 1013.81 30.18 1018.34 31.56
  A 4.46 4.45 88.5 0 1 1021.21 34.29
  L 1050.00 113.38
  A 0.27 0.27 0.0 0 0 1050.52 113.33
  Q 1051.12 109.61 1051.08 104.25
  Q 1050.85 67.38 1051.01 35.25
  C 1051.02 32.84 1051.95 31.71 1054.34 31.33
  Q 1060.56 30.36 1065.28 31.82
  A 2.43 2.41 -81.6 0 1 1066.99 34.14
  L 1066.99 159.01
  A 1.81 1.80 -4.3 0 1 1065.45 160.79
  Q 1060.43 161.54 1054.20 160.73
  A 2.49 2.49 0.0 0 1 1052.18 159.10
  Q 1045.53 140.40 1034.59 110.88
  Q 1027.32 91.28 1023.35 79.68
  Q 1023.11 78.98 1022.95 78.83
  Z
  M 1050.4450 115.0403
  A 0.43 0.27 -92.0 0 0 1050.1902 115.4794
  A 0.43 0.27 -92.0 0 0 1050.4750 115.8997
  A 0.43 0.27 -92.0 0 0 1050.7298 115.4606
  A 0.43 0.27 -92.0 0 0 1050.4450 115.0403
  Z"
/>
<path fill="#000000" d="
  M 550.28 162.44
  Q 525.62 162.50 525.57 162.49
  A 1.72 1.72 0.0 0 1 524.09 159.98
  C 527.25 153.92 539.45 151.82 545.52 151.53
  A 1.07 1.07 0.0 0 0 546.54 150.46
  L 546.54 124.77
  A 0.80 0.80 0.0 0 0 545.90 123.99
  Q 542.11 123.21 541.30 123.04
  C 527.10 120.10 515.76 108.42 512.52 94.37
  Q 511.61 90.42 511.70 82.03
  Q 511.81 72.01 511.81 55.86
  A 2.93 2.93 0.0 0 1 514.74 52.93
  L 515.04 52.93
  A 2.66 2.66 0.0 0 1 517.70 55.52
  Q 518.15 71.66 517.84 79.76
  Q 517.46 89.59 518.79 94.20
  C 522.93 108.52 535.13 118.11 550.18 118.07
  C 565.24 118.04 577.39 108.40 581.47 94.06
  Q 582.78 89.44 582.35 79.61
  Q 582.01 71.52 582.38 55.37
  A 2.66 2.66 0.0 0 1 585.03 52.77
  L 585.33 52.77
  A 2.93 2.93 0.0 0 1 588.28 55.69
  Q 588.35 71.84 588.50 81.86
  Q 588.63 90.25 587.74 94.20
  C 584.56 108.26 573.28 120.00 559.09 123.00
  Q 558.28 123.17 554.49 123.97
  A 0.80 0.80 0.0 0 0 553.86 124.75
  L 553.97 150.44
  A 1.07 1.07 0.0 0 0 555.00 151.51
  C 561.07 151.77 573.28 153.82 576.47 159.86
  A 1.72 1.72 0.0 0 1 575.00 162.38
  Q 574.95 162.38 550.28 162.44
  Z"
/>
<path fill="#8e5a98" d="
  M 1176.00 107.98
  L 1184.02 107.98
  A 0.39 0.39 0.0 0 1 1184.39 108.50
  L 1166.98 155.79
  A 0.39 0.39 0.0 0 1 1166.62 156.05
  L 1156.88 156.05
  A 0.39 0.39 0.0 0 1 1156.52 155.79
  L 1139.30 108.49
  A 0.39 0.39 0.0 0 1 1139.67 107.97
  L 1147.95 107.97
  A 0.39 0.39 0.0 0 1 1148.31 108.23
  L 1161.54 144.56
  A 0.39 0.39 0.0 0 0 1162.27 144.56
  L 1175.64 108.24
  A 0.39 0.39 0.0 0 1 1176.00 107.98
  Z"
/>
<path fill="#8e5a98" d="
  M 1114.13 145.58
  L 1117.64 149.09
  A 1.16 1.16 0.0 0 1 1117.83 150.50
  Q 1116.69 152.45 1114.97 153.47
  C 1098.23 163.40 1078.08 151.81 1082.36 131.31
  Q 1083.80 124.39 1089.20 120.24
  C 1094.64 116.06 1103.80 115.67 1110.06 117.93
  C 1118.78 121.09 1121.34 130.02 1119.86 138.42
  A 0.74 0.74 0.0 0 1 1119.13 139.03
  L 1091.07 139.03
  A 1.12 1.12 0.0 0 0 1089.97 140.33
  Q 1090.37 142.67 1091.77 144.27
  Q 1101.33 155.23 1113.33 145.53
  A 0.61 0.60 48.4 0 1 1114.13 145.58
  Z
  M 1089.81 133.94
  L 1113.11 133.98
  A 0.02 0.02 0.0 0 0 1113.13 133.96
  L 1113.13 133.90
  A 11.27 10.72 0.1 0 0 1101.88 123.16
  L 1101.08 123.16
  A 11.27 10.72 0.1 0 0 1089.79 133.86
  L 1089.79 133.92
  A 0.02 0.02 0.0 0 0 1089.81 133.94
  Z"
/>
<ellipse fill="#8e5a98" cx="0.00" cy="0.00" transform="translate(1132.11,151.64) rotate(-166.1)" rx="5.82" ry="5.53"/>
<path fill="#8e5a98" d="
  M 1192.00 149.91
  L 1192.00 153.20
  Q 1190.11 157.96 1184.27 156.89
  C 1179.66 156.05 1180.44 149.77 1182.58 147.27
  Q 1183.49 146.21 1185.73 146.25
  Q 1190.02 146.35 1192.00 149.91
  Z"
/>
</svg>
