<?xml version="1.0" encoding="UTF-8" standalone="no"?>
<!DOCTYPE svg PUBLIC "-//W3C//DTD SVG 1.1//EN" "http://www.w3.org/Graphics/SVG/1.1/DTD/svg11.dtd">
<svg xmlns="http://www.w3.org/2000/svg" version="1.1" viewBox="0.00 0.00 1400.00 164.00">
<path fill="#000000" d="
  M 699.24 1.21
  C 711.93 1.22 721.08 8.84 724.63 20.79
  A 0.70 0.70 0.0 0 1 723.95 21.69
  L 711.62 21.45
  A 2.97 2.96 2.7 0 0 708.61 24.19
  L 708.58 24.53
  A 2.57 2.57 0.0 0 0 711.14 27.36
  L 724.48 27.37
  A 0.95 0.95 0.0 0 1 725.43 28.32
  L 725.43 33.95
  A 0.98 0.98 0.0 0 1 724.45 34.93
  L 711.12 34.93
  A 2.54 2.53 -2.1 0 0 708.59 37.65
  L 708.59 37.93
  A 2.69 2.69 0.0 0 0 711.28 40.59
  L 724.51 40.59
  A 0.89 0.89 0.0 0 1 725.40 41.48
  L 725.40 47.05
  A 0.86 0.86 0.0 0 1 724.54 47.91
  L 711.28 47.91
  A 2.69 2.68 88.8 0 0 708.60 50.71
  L 708.62 51.09
  A 2.79 2.78 -1.2 0 0 711.41 53.76
  L 725.04 53.76
  A 0.41 0.40 -90.0 0 1 725.44 54.17
  Q 725.30 73.41 725.42 82.25
  Q 725.52 89.18 724.19 93.09
  C 720.69 103.44 710.93 111.81 699.18 111.80
  C 687.43 111.80 677.68 103.41 674.19 93.06
  Q 672.86 89.15 672.97 82.22
  Q 673.10 73.38 672.98 54.14
  A 0.41 0.40 -89.9 0 1 673.38 53.73
  L 687.01 53.75
  A 2.79 2.78 1.2 0 0 689.81 51.08
  L 689.83 50.70
  A 2.69 2.68 -88.7 0 0 687.15 47.90
  L 673.89 47.88
  A 0.86 0.86 0.0 0 1 673.03 47.02
  L 673.04 41.45
  A 0.89 0.89 0.0 0 1 673.93 40.56
  L 687.16 40.58
  A 2.69 2.69 0.0 0 0 689.85 37.92
  L 689.85 37.64
  A 2.54 2.53 2.2 0 0 687.33 34.92
  L 674.00 34.90
  A 0.98 0.98 0.0 0 1 673.02 33.92
  L 673.02 28.29
  A 0.95 0.95 0.0 0 1 673.97 27.34
  L 687.31 27.35
  A 2.57 2.57 0.0 0 0 689.88 24.52
  L 689.85 24.18
  A 2.97 2.96 -2.6 0 0 686.84 21.44
  L 674.51 21.66
  A 0.70 0.70 0.0 0 1 673.83 20.76
  C 677.39 8.82 686.55 1.20 699.24 1.21
  Z
  M 697.54 65.97
  A 0.69 0.68 22.5 0 0 696.37 66.45
  L 696.37 84.05
  A 0.75 0.74 -85.1 0 1 695.50 84.79
  Q 690.89 84.00 687.83 87.40
  Q 685.53 89.95 688.56 91.98
  C 692.35 94.51 696.90 91.63 698.23 87.97
  Q 698.63 86.84 698.60 79.94
  Q 698.56 71.76 698.51 67.60
  A 1.64 1.63 22.3 0 0 698.03 66.47
  L 697.54 65.97
  Z
  M 718.34 69.33
  A 0.90 0.90 0.0 0 0 717.18 68.44
  L 706.50 71.62
  A 1.70 1.69 -8.3 0 0 705.28 73.24
  L 705.28 91.32
  A 0.98 0.96 -84.2 0 1 704.12 92.28
  Q 700.40 91.53 697.92 94.40
  A 2.63 2.63 0.0 0 0 697.74 97.62
  Q 698.86 99.24 701.19 99.46
  C 704.68 99.80 707.16 96.06 707.13 92.96
  Q 707.06 84.42 707.05 78.31
  A 2.41 2.41 0.0 0 1 708.78 76.00
  L 715.41 74.03
  A 1.19 1.19 0.0 0 1 716.94 75.17
  L 716.94 82.46
  A 0.99 0.99 0.0 0 1 715.93 83.45
  C 713.18 83.40 709.01 84.47 710.12 88.09
  A 1.45 1.43 8.7 0 0 710.71 88.88
  C 714.73 91.54 718.46 87.95 718.40 83.75
  Q 718.25 73.70 718.34 69.33
  Z"
/>
<path fill="#8e5a98" d="
  M 193.33 125.10
  Q 194.71 124.83 199.63 124.91
  C 203.87 124.98 206.22 124.43 206.84 129.26
  C 207.95 137.73 205.61 148.01 199.97 154.76
  Q 194.92 160.78 186.37 162.82
  Q 178.60 164.68 170.37 162.67
  C 159.04 159.90 150.79 150.17 149.88 138.49
  Q 148.91 126.16 148.93 121.50
  Q 149.02 95.43 148.98 66.50
  Q 148.98 64.09 149.58 57.24
  Q 150.52 46.62 156.98 38.73
  C 163.85 30.33 175.54 28.37 186.30 30.73
  Q 203.13 34.43 206.14 52.12
  C 207.03 57.35 208.03 63.44 205.84 67.80
  A 2.27 2.27 0.0 0 1 203.81 69.05
  L 193.28 69.05
  A 1.77 1.77 0.0 0 1 191.54 67.62
  C 190.36 61.79 192.21 49.76 185.86 46.16
  Q 179.85 42.76 173.15 45.46
  C 165.77 48.44 165.95 58.23 165.95 65.00
  Q 166.00 105.62 166.07 132.23
  C 166.08 136.76 167.17 143.78 171.20 147.08
  C 174.60 149.86 182.20 149.59 185.57 147.57
  Q 189.65 145.14 190.53 139.74
  Q 191.22 135.48 191.25 127.60
  A 2.57 2.56 -5.4 0 1 193.33 125.10
  Z"
/>
<path fill="#8e5a98" d="
  M 215.92 161.31
  Q 215.40 159.43 215.88 156.69
  Q 224.71 106.21 237.05 36.81
  Q 237.48 34.43 238.25 32.88
  A 3.19 3.18 -78.5 0 1 240.88 31.14
  Q 247.86 30.70 255.30 31.03
  Q 258.65 31.17 259.23 34.38
  Q 268.46 84.93 281.15 152.97
  Q 281.94 157.16 281.79 160.47
  A 1.70 1.69 -88.8 0 1 280.10 162.10
  L 268.47 162.10
  A 1.71 1.71 0.0 0 1 266.92 161.11
  Q 266.29 159.78 265.94 157.81
  Q 263.64 144.69 261.64 132.57
  Q 261.23 130.05 258.79 130.01
  Q 246.51 129.80 238.36 130.12
  C 235.49 130.24 235.63 132.28 235.21 134.45
  Q 234.62 137.47 231.08 158.00
  Q 230.81 159.57 230.13 161.15
  A 1.56 1.56 0.0 0 1 228.69 162.11
  L 216.97 162.11
  A 1.09 1.09 0.0 0 1 215.92 161.31
  Z
  M 248.50 116.97
  Q 252.13 116.97 257.17 117.00
  A 1.55 1.54 85.4 0 0 258.70 115.19
  L 248.74 57.28
  A 0.29 0.29 0.0 0 0 248.59 57.09
  Q 248.54 57.06 248.48 57.06
  Q 248.42 57.06 248.36 57.09
  A 0.29 0.29 0.0 0 0 248.21 57.28
  L 238.29 115.20
  A 1.55 1.54 -85.4 0 0 239.82 117.00
  Q 244.87 116.97 248.50 116.97
  Z"
/>
<path fill="#8e5a98" d="
  M 432.28 161.98
  A 1.09 1.09 0.0 0 1 431.23 161.18
  Q 430.71 159.30 431.19 156.57
  Q 440.00 106.12 452.32 36.77
  Q 452.75 34.39 453.52 32.84
  A 3.18 3.18 0.0 0 1 456.15 31.10
  Q 463.12 30.66 470.56 30.99
  Q 473.91 31.13 474.49 34.34
  Q 483.72 84.85 496.41 152.84
  Q 497.20 157.02 497.05 160.33
  A 1.70 1.69 -88.8 0 1 495.36 161.96
  L 483.74 161.96
  A 1.71 1.71 0.0 0 1 482.19 160.97
  Q 481.56 159.65 481.21 157.68
  Q 478.91 144.57 476.91 132.46
  Q 476.50 129.94 474.06 129.90
  Q 461.79 129.69 453.65 130.01
  C 450.78 130.13 450.92 132.17 450.50 134.34
  Q 449.91 137.36 446.38 157.87
  Q 446.11 159.44 445.43 161.02
  A 1.56 1.56 0.0 0 1 443.99 161.98
  L 432.28 161.98
  Z
  M 464.01 116.97
  Q 468.11 116.96 472.98 116.96
  A 0.98 0.98 0.0 0 0 473.95 116.02
  Q 474.02 113.46 473.83 112.46
  Q 468.42 83.11 464.33 56.47
  Q 464.16 55.39 463.89 55.39
  Q 463.63 55.39 463.46 56.48
  Q 459.47 83.13 454.18 112.50
  Q 453.99 113.50 454.07 116.06
  A 0.98 0.98 0.0 0 0 455.05 117.00
  Q 459.92 116.97 464.01 116.97
  Z"
/>
<path fill="#8e5a98" d="
  M 921.44 109.03
  A 0.44 0.44 0.0 0 0 921.00 109.47
  L 921.00 158.89
  A 2.09 2.09 0.0 0 1 918.91 160.98
  L 906.91 160.98
  A 1.77 1.76 -3.1 0 1 905.15 159.41
  Q 905.01 158.03 905.00 156.25
  Q 904.99 101.84 905.01 72.17
  C 905.01 62.49 904.20 49.55 904.06 42.51
  Q 903.95 37.28 905.56 32.88
  A 1.90 1.85 80.6 0 1 906.09 32.12
  Q 907.30 31.07 909.00 31.01
  Q 918.75 30.65 928.67 31.14
  C 933.44 31.37 939.50 32.28 943.80 34.39
  Q 955.68 40.23 958.20 52.52
  Q 960.92 65.76 959.48 78.89
  C 957.76 94.55 951.05 106.64 934.90 108.73
  C 930.50 109.30 925.67 108.94 921.44 109.03
  Z
  M 921.08 47.07
  L 920.92 93.03
  A 1.31 1.31 0.0 0 0 922.23 94.35
  L 929.34 94.37
  A 13.88 13.60 -89.8 0 0 942.98 80.54
  L 943.06 59.72
  A 13.88 13.60 -89.8 0 0 929.50 45.79
  L 922.39 45.77
  A 1.31 1.31 0.0 0 0 921.08 47.07
  Z"
/>
<path fill="#8e5a98" d="
  M 340.32 118.40
  Q 340.99 116.69 341.03 113.75
  Q 341.26 96.39 340.46 78.17
  C 339.80 63.30 339.47 47.00 340.12 34.44
  Q 340.27 31.51 342.93 31.18
  Q 346.49 30.73 353.46 31.10
  Q 356.62 31.26 356.81 34.19
  Q 357.00 36.86 357.00 39.50
  Q 357.01 108.63 356.99 153.00
  C 356.99 156.55 357.86 161.54 353.45 161.93
  Q 347.89 162.41 342.33 161.85
  A 1.34 1.33 -6.6 0 1 341.21 160.97
  L 311.84 79.01
  A 0.20 0.20 0.0 0 0 311.47 79.00
  Q 311.29 79.48 311.50 79.95
  A 1.07 1.06 38.8 0 1 311.57 80.57
  Q 310.93 83.91 310.93 85.75
  Q 311.00 112.98 311.06 135.50
  Q 311.09 146.30 311.86 156.25
  Q 312.03 158.40 311.00 160.53
  A 2.37 2.36 -80.2 0 1 309.12 161.86
  Q 302.88 162.54 297.59 161.76
  A 2.72 2.71 -0.6 0 1 295.31 159.53
  Q 294.99 157.69 294.99 155.50
  Q 294.94 68.91 294.92 47.25
  Q 294.90 39.18 295.16 34.65
  Q 295.33 31.56 298.13 31.16
  C 301.17 30.72 306.68 30.35 309.10 32.68
  A 2.25 2.23 -78.3 0 1 309.67 33.56
  L 340.07 118.40
  A 0.13 0.13 0.0 0 0 340.32 118.40
  Z"
/>
<path fill="#8e5a98" d="
  M 409.33 45.98
  A 0.33 0.33 0.0 0 0 409.00 46.31
  L 409.00 160.02
  A 1.97 1.97 0.0 0 1 407.03 161.99
  L 394.00 161.99
  A 2.01 2.00 90.0 0 1 392.00 159.98
  L 392.00 46.84
  A 0.86 0.86 0.0 0 0 391.13 45.98
  Q 379.99 46.04 373.78 45.93
  C 367.83 45.83 369.02 35.82 370.39 32.29
  A 2.03 2.02 10.5 0 1 372.28 31.00
  L 427.30 31.00
  A 1.01 1.00 -7.0 0 1 428.28 31.76
  Q 429.62 37.03 428.88 42.70
  Q 428.48 45.76 425.22 45.92
  Q 422.39 46.06 409.33 45.98
  Z"
/>
<path fill="#8e5a98" d="
  M 526.54 112.16
  C 527.35 114.04 526.32 116.65 526.24 119.08
  Q 525.65 137.36 526.75 155.49
  Q 526.90 157.98 525.88 160.58
  A 2.03 2.02 7.7 0 1 524.21 161.85
  Q 519.12 162.41 513.39 161.88
  C 509.48 161.51 509.98 157.96 509.97 154.73
  Q 509.89 103.70 510.00 37.75
  Q 510.01 34.84 510.45 33.10
  A 2.56 2.56 0.0 0 1 512.81 31.18
  C 521.52 30.80 531.97 30.34 541.41 31.61
  C 553.56 33.24 561.23 40.49 564.65 52.21
  Q 565.60 55.48 565.82 58.17
  C 566.75 69.43 567.20 81.96 563.07 92.47
  Q 559.87 100.59 551.68 105.94
  A 1.57 1.57 0.0 0 0 551.04 107.72
  Q 552.06 110.96 553.33 114.45
  Q 560.14 133.18 567.82 154.72
  Q 568.89 157.73 568.90 160.32
  A 1.52 1.51 87.3 0 1 567.53 161.83
  Q 561.92 162.36 556.04 162.01
  Q 552.97 161.84 552.01 158.88
  Q 550.22 153.33 536.50 111.98
  A 2.97 2.97 0.0 0 0 533.68 109.95
  L 527.99 109.95
  A 1.58 1.58 0.0 0 0 526.54 112.16
  Z
  M 527.04 47.71
  L 526.96 93.23
  A 1.86 1.86 0.0 0 0 528.82 95.09
  L 536.15 95.11
  A 16.35 13.65 -89.9 0 0 549.83 78.78
  L 549.85 62.24
  A 16.35 13.65 -89.9 0 0 536.23 45.87
  L 528.90 45.85
  A 1.86 1.86 0.0 0 0 527.04 47.71
  Z"
/>
<path fill="#8e5a98" d="
  M 601.77 87.96
  Q 621.35 88.04 622.27 88.01
  Q 626.85 87.84 626.94 91.95
  Q 627.06 97.40 626.97 100.84
  A 2.21 2.21 0.0 0 1 624.76 103.00
  L 603.02 103.00
  A 2.02 2.02 0.0 0 0 601.00 105.02
  L 601.00 146.69
  A 0.32 0.32 0.0 0 0 601.32 147.01
  L 629.73 147.01
  A 2.35 2.35 0.0 0 1 631.97 148.65
  Q 633.49 153.53 632.88 158.87
  C 632.54 161.85 629.51 162.07 627.00 162.03
  Q 623.09 161.97 586.85 162.00
  A 1.68 1.67 85.1 0 1 585.20 160.60
  Q 585.09 159.98 584.99 157.50
  Q 584.97 157.07 585.03 115.59
  Q 585.06 95.04 584.38 78.94
  Q 583.88 67.18 583.92 42.30
  Q 583.93 36.80 584.70 33.07
  A 2.56 2.56 0.0 0 1 587.21 31.02
  L 629.09 31.02
  A 1.89 1.88 -0.0 0 1 630.98 32.90
  L 630.98 43.99
  A 2.01 2.01 0.0 0 1 628.97 46.00
  L 601.62 46.00
  A 0.62 0.61 -0.0 0 0 601.00 46.61
  L 601.00 87.19
  A 0.77 0.77 0.0 0 0 601.77 87.96
  Z"
/>
<path fill="#8e5a98" d="
  M 811.07 106.13
  Q 817.51 124.62 827.48 151.79
  Q 828.84 155.50 829.08 158.88
  A 1.98 1.98 0.0 0 1 827.10 161.00
  L 815.51 161.00
  A 2.71 2.70 -10.9 0 1 813.00 159.31
  C 806.88 143.99 803.11 130.68 796.84 110.81
  A 2.61 2.59 81.1 0 0 794.37 109.00
  L 789.07 109.00
  A 2.07 2.07 0.0 0 0 787.00 111.07
  L 787.00 158.91
  A 2.08 2.08 0.0 0 1 784.91 160.99
  L 773.18 160.98
  A 2.13 2.13 0.0 0 1 771.11 159.30
  Q 771.03 158.96 771.03 156.75
  Q 770.94 116.95 771.04 35.03
  Q 771.04 31.21 774.74 31.07
  Q 790.67 30.45 803.30 32.19
  Q 806.52 32.63 811.80 35.24
  Q 819.75 39.17 823.27 47.46
  C 825.58 52.89 826.13 57.02 826.60 63.31
  Q 827.15 70.48 826.58 77.74
  C 825.62 89.91 821.18 98.68 811.29 105.45
  A 0.59 0.59 0.0 0 0 811.07 106.13
  Z
  M 786.92 47.00
  L 787.08 93.38
  A 1.07 1.07 0.0 0 0 788.15 94.45
  L 795.46 94.42
  A 15.04 14.66 89.8 0 0 810.07 79.33
  L 810.01 60.89
  A 15.04 14.66 89.8 0 0 795.30 45.90
  L 787.99 45.93
  A 1.07 1.07 0.0 0 0 786.92 47.00
  Z"
/>
<path fill="#8e5a98" d="
  M 860.78 146.00
  Q 876.20 145.98 888.49 146.06
  Q 890.97 146.07 890.96 148.13
  C 890.92 152.64 891.16 156.42 890.36 160.13
  A 1.07 1.07 0.0 0 1 889.31 160.98
  L 846.14 160.98
  A 2.26 2.26 0.0 0 1 843.99 159.42
  Q 843.18 156.90 843.08 152.00
  Q 842.62 128.22 843.26 106.85
  Q 843.66 93.56 843.25 81.66
  Q 842.52 60.64 843.20 35.50
  Q 843.26 33.40 844.24 32.22
  A 2.07 1.97 -80.0 0 1 845.04 31.63
  Q 846.56 31.02 851.25 31.01
  Q 870.38 30.96 884.42 31.04
  C 885.63 31.04 887.07 31.38 888.19 31.81
  A 1.06 1.05 9.5 0 1 888.88 32.77
  Q 889.09 37.94 888.97 43.75
  Q 888.92 46.01 886.50 46.00
  Q 885.27 46.00 860.34 46.00
  A 0.34 0.33 0.0 0 0 860.00 46.33
  L 860.00 87.25
  A 0.76 0.76 0.0 0 0 860.76 88.01
  L 883.10 88.01
  A 1.83 1.83 0.0 0 1 884.93 89.76
  Q 885.03 92.27 885.05 98.60
  Q 885.05 102.36 881.47 102.61
  Q 872.92 103.21 860.42 102.95
  A 0.42 0.41 0.0 0 0 860.00 103.36
  L 860.00 145.22
  A 0.78 0.78 0.0 0 0 860.78 146.00
  Z"
/>
<path fill="#8e5a98" d="
  M 991.73 88.01
  L 1013.80 88.01
  A 1.74 1.74 0.0 0 1 1015.50 89.39
  Q 1016.34 93.44 1015.94 99.30
  C 1015.67 103.36 1012.34 103.01 1008.96 103.00
  Q 1003.73 102.99 991.30 103.00
  A 0.30 0.30 0.0 0 0 991.00 103.30
  L 991.00 145.52
  A 0.49 0.49 0.0 0 0 991.49 146.01
  L 1020.08 146.01
  A 1.03 1.02 82.7 0 1 1021.07 146.78
  Q 1022.71 152.86 1021.68 158.60
  Q 1021.28 160.84 1018.55 160.87
  Q 998.97 161.15 977.32 160.92
  A 2.72 2.72 0.0 0 1 974.76 159.03
  Q 973.99 156.62 973.99 153.50
  Q 974.03 81.35 973.95 40.76
  Q 973.94 37.26 974.20 33.99
  Q 974.40 31.33 977.00 31.20
  Q 983.67 30.86 1016.26 31.04
  Q 1019.31 31.06 1019.71 33.79
  C 1020.19 37.09 1021.29 42.08 1020.27 44.09
  C 1019.07 46.45 1016.44 46.00 1014.02 46.00
  Q 996.94 45.97 991.57 46.06
  A 0.58 0.58 0.0 0 0 991.00 46.64
  L 991.00 87.27
  A 0.74 0.73 90.0 0 0 991.73 88.01
  Z"
/>
<path fill="#8e5a98" d="
  M 1052.00 145.43
  A 0.59 0.58 -0.0 0 0 1052.59 146.01
  L 1079.94 146.01
  A 2.05 2.05 0.0 0 1 1081.99 148.06
  L 1081.99 158.96
  A 2.03 2.03 0.0 0 1 1079.96 160.99
  L 1038.08 160.99
  A 2.15 2.14 -6.4 0 1 1035.99 159.33
  C 1035.29 156.28 1035.04 153.13 1035.26 149.19
  Q 1036.00 135.75 1036.00 126.50
  Q 1035.98 51.91 1036.00 33.80
  Q 1036.00 31.19 1038.46 31.05
  Q 1043.77 30.74 1049.16 31.20
  A 2.80 2.79 -5.0 0 1 1051.62 33.25
  Q 1051.99 34.62 1051.99 37.01
  Q 1052.01 95.93 1052.00 145.43
  Z"
/>
<path fill="#8e5a98" d="
  M 1111.74 88.00
  Q 1127.97 88.01 1132.51 88.00
  C 1134.68 88.00 1135.93 88.57 1136.50 90.82
  Q 1137.84 96.10 1136.19 100.91
  C 1135.33 103.42 1131.25 102.68 1129.15 102.28
  A 0.53 0.48 47.9 0 0 1129.05 102.27
  L 1111.54 103.29
  A 0.58 0.57 88.4 0 0 1111.00 103.87
  L 1111.00 145.28
  A 0.67 0.67 0.0 0 0 1111.67 145.95
  L 1139.38 145.95
  A 1.32 1.31 79.1 0 1 1140.60 146.79
  Q 1142.59 151.80 1141.77 158.44
  A 2.45 2.44 -4.3 0 1 1140.00 160.49
  Q 1137.96 161.05 1135.00 161.02
  Q 1124.80 160.94 1097.27 161.01
  A 1.62 1.61 81.1 0 1 1095.73 159.88
  Q 1095.00 157.58 1095.00 154.50
  Q 1094.98 51.56 1095.04 35.26
  C 1095.05 30.65 1098.25 31.04 1102.22 31.02
  Q 1128.41 30.93 1135.92 31.08
  Q 1136.86 31.10 1139.37 31.83
  A 0.85 0.84 8.3 0 1 1139.98 32.64
  L 1139.98 44.00
  A 1.99 1.99 0.0 0 1 1137.99 45.99
  L 1112.96 45.99
  A 1.96 1.96 0.0 0 0 1111.00 47.95
  L 1111.00 87.26
  A 0.74 0.74 0.0 0 0 1111.74 88.00
  Z"
/>
<path fill="#8e5a98" d="
  M 1171.58 78.67
  Q 1171.04 79.15 1170.98 82.51
  Q 1170.67 101.80 1171.79 128.74
  Q 1172.47 145.18 1171.74 158.86
  A 2.22 2.21 -88.5 0 1 1169.53 160.96
  L 1157.51 160.96
  A 1.54 1.53 -0.0 0 1 1155.97 159.43
  L 1155.97 33.26
  A 1.78 1.78 0.0 0 1 1157.39 31.52
  C 1161.69 30.64 1168.57 29.76 1170.41 34.86
  Q 1179.15 59.05 1187.45 81.35
  Q 1194.95 101.49 1199.25 115.54
  A 0.20 0.19 -13.6 0 0 1199.47 115.67
  A 0.22 0.21 -15.0 0 0 1199.66 115.35
  L 1199.35 114.82
  A 1.05 1.03 -53.6 0 1 1199.24 114.05
  Q 1200.01 111.09 1200.01 109.25
  Q 1199.97 53.73 1199.91 42.25
  Q 1199.89 38.12 1200.15 33.97
  A 2.37 2.35 -6.8 0 1 1201.82 31.86
  Q 1207.60 30.08 1213.43 31.58
  Q 1216.04 32.26 1216.03 35.25
  Q 1215.92 60.22 1216.07 140.19
  Q 1216.08 149.07 1215.79 159.44
  A 1.39 1.38 -3.2 0 1 1214.59 160.77
  Q 1209.34 161.48 1203.27 160.76
  A 2.46 2.46 0.0 0 1 1201.26 159.17
  L 1171.89 78.75
  A 0.20 0.20 0.0 0 0 1171.58 78.67
  Z"
/>
<path fill="#000000" d="
  M 699.26 162.44
  Q 677.90 162.48 674.39 162.44
  Q 673.88 162.43 673.79 162.38
  A 1.90 1.62 -68.3 0 1 673.06 160.24
  C 675.00 154.04 689.54 151.77 694.66 151.46
  A 0.93 0.92 -2.0 0 0 695.53 150.54
  L 695.53 124.79
  A 0.94 0.94 0.0 0 0 694.72 123.86
  Q 676.78 121.52 666.79 106.70
  C 661.82 99.32 660.58 91.99 660.70 82.22
  Q 660.82 72.35 660.81 55.90
  A 2.98 2.98 0.0 0 1 663.73 52.92
  L 663.84 52.92
  A 2.87 2.87 0.0 0 1 666.77 55.71
  Q 667.09 67.65 666.85 76.53
  Q 666.51 89.37 667.73 93.89
  C 671.63 108.31 684.08 118.10 699.18 118.07
  C 714.28 118.05 726.70 108.20 730.54 93.77
  Q 731.74 89.25 731.35 76.41
  Q 731.08 67.53 731.35 55.59
  A 2.87 2.87 0.0 0 1 734.27 52.79
  L 734.38 52.79
  A 2.98 2.98 0.0 0 1 737.31 55.75
  Q 737.37 72.20 737.52 82.07
  C 737.68 91.84 736.47 99.18 731.53 106.58
  Q 721.59 121.43 703.66 123.84
  A 0.94 0.94 0.0 0 0 702.86 124.78
  L 702.95 150.53
  A 0.93 0.92 1.8 0 0 703.83 151.44
  C 708.95 151.73 723.50 153.95 725.46 160.14
  A 1.90 1.62 68.1 0 1 724.74 162.28
  Q 724.65 162.33 724.14 162.34
  Q 720.63 162.40 699.26 162.44
  Z"
/>
<path fill="#8e5a98" d="
  M 1310.95 144.92
  Q 1311.80 143.71 1312.31 142.29
  Q 1316.28 131.06 1324.36 108.53
  A 0.88 0.85 -79.8 0 1 1325.17 107.95
  L 1332.35 107.95
  A 0.91 0.90 -79.8 0 1 1333.19 109.17
  Q 1321.95 139.34 1317.13 152.87
  Q 1316.59 154.39 1315.72 155.53
  A 1.16 1.14 16.4 0 1 1314.90 155.97
  Q 1311.96 156.23 1307.77 156.06
  C 1305.44 155.97 1305.35 154.71 1304.53 152.52
  Q 1296.88 132.01 1288.22 109.06
  A 0.80 0.80 0.0 0 1 1288.97 107.97
  L 1296.12 107.97
  A 1.53 1.52 -9.7 0 1 1297.56 108.98
  L 1310.68 144.88
  A 0.15 0.15 0.0 0 0 1310.95 144.92
  Z"
/>
<path fill="#8e5a98" d="
  M 1269.04 138.19
  A 0.88 0.88 0.0 0 1 1268.16 139.02
  L 1239.97 139.02
  A 1.14 1.13 82.4 0 0 1238.88 140.46
  Q 1239.50 142.71 1240.90 144.37
  Q 1248.89 153.80 1259.56 147.62
  C 1260.60 147.02 1261.36 146.16 1262.14 145.57
  A 0.75 0.75 0.0 0 1 1263.12 145.64
  L 1266.82 149.33
  A 0.83 0.82 -50.2 0 1 1266.91 150.37
  Q 1265.28 152.72 1263.48 153.77
  C 1249.67 161.80 1230.91 154.64 1230.82 137.08
  C 1230.76 125.99 1236.65 117.84 1248.00 116.74
  Q 1254.77 116.09 1260.26 118.46
  C 1268.55 122.03 1269.48 129.99 1269.04 138.19
  Z
  M 1238.91 133.95
  L 1262.01 134.03
  A 0.12 0.12 0.0 0 0 1262.13 133.91
  L 1262.13 133.86
  A 11.43 10.67 0.2 0 0 1250.74 123.15
  L 1250.26 123.15
  A 11.43 10.67 0.2 0 0 1238.79 133.78
  L 1238.79 133.83
  A 0.12 0.12 0.0 0 0 1238.91 133.95
  Z"
/>
<ellipse fill="#8e5a98" cx="0.00" cy="0.00" transform="translate(1281.10,151.64) rotate(-168.9)" rx="5.83" ry="5.54"/>
<circle fill="#8e5a98" cx="1335.35" cy="151.70" r="5.67"/>
</svg>
