<?xml version="1.0" standalone="no"?>
<!DOCTYPE svg PUBLIC "-//W3C//DTD SVG 20010904//EN"
 "http://www.w3.org/TR/2001/REC-SVG-20010904/DTD/svg10.dtd">
<svg version="1.0" xmlns="http://www.w3.org/2000/svg"
 width="300.000000pt" height="114.000000pt" viewBox="0 0 300.000000 114.000000"
 preserveAspectRatio="xMidYMid meet">
<metadata>
Created by potrace 1.10, written by Peter Selinger 2001-2011
</metadata>
<g transform="translate(0.000000,114.000000) scale(0.100000,-0.100000)"
fill="#000000" stroke="none">
<path d="M141 946 c-48 -27 -50 -40 -51 -368 l0 -308 29 -32 29 -33 306 -3
c343 -3 376 1 407 51 18 30 19 48 17 339 l-3 308 -28 27 -27 28 -328 2 c-259
2 -332 0 -351 -11z m669 -53 c7 -7 19 -443 13 -443 -1 0 -43 43 -94 95 -51 52
-99 95 -108 95 -9 0 -52 -36 -96 -80 l-79 -79 -54 46 -54 46 -99 -100 -99
-101 0 254 c0 251 0 253 23 269 20 15 56 16 331 12 169 -3 312 -9 316 -14z
m-138 -366 c161 -159 180 -192 142 -245 -15 -22 -16 -22 -329 -22 -272 0 -316
2 -329 16 -9 8 -16 18 -16 22 0 4 47 51 104 104 l103 96 46 -46 47 -47 87 88
c49 48 89 87 90 87 1 0 26 -24 55 -53z"/>
<path d="M362 793 c-18 -7 -42 -57 -42 -88 0 -34 50 -85 83 -85 14 0 39 12 56
26 62 52 27 155 -51 153 -18 0 -39 -3 -46 -6z m73 -78 c0 -25 -4 -31 -27 -33
-19 -2 -28 2 -33 18 -8 27 12 52 39 48 16 -2 21 -10 21 -33z"/>
<path d="M1062 762 c-9 -6 -12 -48 -10 -173 l3 -164 33 -3 32 -3 -2 173 c-3
164 -4 173 -23 176 -11 1 -26 -2 -33 -6z"/>
<path d="M1442 752 c-11 -11 -36 -63 -57 -116 -21 -53 -41 -93 -45 -89 -4 5
-24 54 -46 111 l-39 102 -42 0 -43 0 0 -171 0 -170 33 3 32 3 -2 109 c0 59 3
104 7 100 5 -5 25 -51 45 -101 27 -69 42 -93 55 -93 24 0 32 12 70 105 17 44
36 84 41 89 4 5 7 -40 6 -100 l-2 -109 33 -3 32 -3 0 169 c0 167 0 170 -22
176 -33 8 -36 8 -56 -12z m-206 -88 c-3 -8 -10 -14 -16 -14 -11 0 -14 43 -3
54 10 10 26 -23 19 -40z"/>
<path d="M1640 751 c-76 -40 -103 -163 -57 -252 30 -57 94 -93 151 -84 79 12
121 56 132 138 l6 45 -66 4 c-82 4 -86 2 -86 -28 0 -21 4 -24 40 -24 33 0 40
-3 40 -19 0 -27 -46 -61 -82 -61 -41 0 -88 48 -89 92 -3 77 15 130 46 142 49
19 115 -5 115 -42 0 -7 14 -12 30 -12 25 0 30 4 30 24 0 28 -39 72 -75 86 -41
15 -97 12 -135 -9z"/>
<path d="M2170 595 l0 -175 30 0 30 0 0 175 0 175 -30 0 -30 0 0 -175z"/>
<path d="M1918 753 c-2 -5 -2 -81 0 -170 l3 -163 29 0 c29 0 29 0 32 68 l3 67
63 3 c58 3 62 4 62 27 0 23 -4 24 -62 27 l-63 3 0 45 0 45 60 2 c33 1 66 2 73
2 6 1 12 12 12 26 l0 25 -104 0 c-58 0 -106 -3 -108 -7z"/>
<path d="M2329 665 c-52 -28 -73 -112 -45 -179 37 -88 161 -98 209 -17 34 58
16 160 -35 195 -28 20 -94 20 -129 1z m100 -61 c50 -64 -3 -167 -65 -126 -40
26 -41 109 -1 137 30 21 42 19 66 -11z"/>
<path d="M2536 672 c-3 -5 10 -62 28 -126 32 -117 48 -142 80 -130 14 5 38 70
52 144 7 32 24 42 24 14 0 -9 9 -48 20 -85 20 -65 23 -69 50 -69 25 0 31 5 39
38 6 20 22 75 35 121 14 47 23 88 20 93 -8 12 -40 10 -52 -4 -5 -7 -15 -46
-22 -85 -14 -78 -24 -91 -34 -43 -3 17 -13 55 -22 85 -13 46 -19 55 -38 55
-32 0 -42 -15 -62 -95 -19 -78 -34 -105 -34 -59 0 16 -4 45 -9 64 -5 19 -12
47 -15 63 -5 20 -12 27 -31 27 -13 0 -26 -4 -29 -8z"/>
</g>
</svg>
