<?xml version="1.0" encoding="UTF-8" standalone="no"?>
<!DOCTYPE svg PUBLIC "-//W3C//DTD SVG 1.1//EN" "http://www.w3.org/Graphics/SVG/1.1/DTD/svg11.dtd">
<svg xmlns="http://www.w3.org/2000/svg" version="1.1" viewBox="0.00 0.00 1400.00 164.00">
<path fill="#000000" d="
  M 699.24 1.21
  C 711.93 1.22 721.08 8.84 724.63 20.79
  A 0.70 0.70 0.0 0 1 723.95 21.69
  L 711.62 21.45
  A 2.97 2.96 2.7 0 0 708.61 24.19
  L 708.58 24.53
  A 2.57 2.57 0.0 0 0 711.14 27.36
  L 724.48 27.37
  A 0.95 0.95 0.0 0 1 725.43 28.32
  L 725.43 33.95
  A 0.98 0.98 0.0 0 1 724.45 34.93
  L 711.12 34.93
  A 2.54 2.53 -2.1 0 0 708.59 37.65
  L 708.59 37.93
  A 2.69 2.69 0.0 0 0 711.28 40.59
  L 724.51 40.59
  A 0.89 0.89 0.0 0 1 725.40 41.48
  L 725.40 47.05
  A 0.86 0.86 0.0 0 1 724.54 47.91
  L 711.28 47.91
  A 2.69 2.68 88.8 0 0 708.60 50.71
  L 708.62 51.09
  A 2.79 2.78 -1.2 0 0 711.41 53.76
  L 725.04 53.76
  A 0.41 0.40 -90.0 0 1 725.44 54.17
  Q 725.30 73.41 725.42 82.25
  Q 725.52 89.18 724.19 93.09
  C 720.69 103.44 710.93 111.81 699.18 111.80
  C 687.43 111.80 677.68 103.41 674.19 93.06
  Q 672.86 89.15 672.97 82.22
  Q 673.10 73.38 672.98 54.14
  A 0.41 0.40 -89.9 0 1 673.38 53.73
  L 687.01 53.75
  A 2.79 2.78 1.2 0 0 689.81 51.08
  L 689.83 50.70
  A 2.69 2.68 -88.7 0 0 687.15 47.90
  L 673.89 47.88
  A 0.86 0.86 0.0 0 1 673.03 47.02
  L 673.04 41.45
  A 0.89 0.89 0.0 0 1 673.93 40.56
  L 687.16 40.58
  A 2.69 2.69 0.0 0 0 689.85 37.92
  L 689.85 37.64
  A 2.54 2.53 2.2 0 0 687.33 34.92
  L 674.00 34.90
  A 0.98 0.98 0.0 0 1 673.02 33.92
  L 673.02 28.29
  A 0.95 0.95 0.0 0 1 673.97 27.34
  L 687.31 27.35
  A 2.57 2.57 0.0 0 0 689.88 24.52
  L 689.85 24.18
  A 2.97 2.96 -2.6 0 0 686.84 21.44
  L 674.51 21.66
  A 0.70 0.70 0.0 0 1 673.83 20.76
  C 677.39 8.82 686.55 1.20 699.24 1.21
  Z
  M 697.44 65.89
  A 0.70 0.70 0.0 0 0 696.37 66.49
  L 696.38 84.05
  A 0.75 0.75 0.0 0 1 695.50 84.79
  Q 690.89 84.00 687.83 87.40
  Q 685.53 89.95 688.56 91.98
  C 692.35 94.51 696.90 91.63 698.23 87.97
  Q 698.63 86.84 698.60 79.94
  Q 698.56 71.84 698.51 67.67
  A 2.05 2.04 15.3 0 0 697.52 65.94
  L 697.44 65.89
  Z
  M 718.34 69.33
  A 0.90 0.90 0.0 0 0 717.18 68.44
  L 706.50 71.62
  A 1.70 1.69 -8.3 0 0 705.28 73.24
  L 705.28 91.32
  A 0.98 0.96 -84.2 0 1 704.12 92.28
  Q 700.40 91.53 697.92 94.40
  A 2.63 2.63 0.0 0 0 697.74 97.62
  Q 698.86 99.24 701.19 99.46
  C 704.68 99.80 707.16 96.06 707.13 92.96
  Q 707.06 84.42 707.05 78.31
  A 2.41 2.41 0.0 0 1 708.78 76.00
  L 715.41 74.03
  A 1.19 1.19 0.0 0 1 716.94 75.17
  L 716.94 82.46
  A 0.99 0.99 0.0 0 1 715.93 83.45
  C 713.18 83.40 709.01 84.47 710.12 88.09
  A 1.45 1.43 8.7 0 0 710.71 88.88
  C 714.73 91.54 718.46 87.95 718.40 83.75
  Q 718.25 73.70 718.34 69.33
  Z"
/>
<path fill="#000000" d="
  M 699.26 162.44
  Q 677.90 162.48 674.39 162.44
  Q 673.88 162.43 673.79 162.38
  A 1.90 1.62 -68.3 0 1 673.06 160.24
  C 675.00 154.04 689.54 151.77 694.66 151.46
  A 0.93 0.92 -2.0 0 0 695.53 150.54
  L 695.53 124.79
  A 0.94 0.94 0.0 0 0 694.72 123.86
  Q 676.78 121.52 666.79 106.70
  C 661.82 99.32 660.58 91.99 660.70 82.22
  Q 660.82 72.35 660.81 55.90
  A 2.98 2.98 0.0 0 1 663.73 52.92
  L 663.84 52.92
  A 2.87 2.87 0.0 0 1 666.77 55.71
  Q 667.09 67.65 666.85 76.53
  Q 666.51 89.37 667.73 93.89
  C 671.63 108.31 684.08 118.10 699.18 118.07
  C 714.28 118.05 726.70 108.20 730.54 93.77
  Q 731.74 89.25 731.35 76.41
  Q 731.08 67.53 731.35 55.59
  A 2.87 2.87 0.0 0 1 734.27 52.79
  L 734.38 52.79
  A 2.98 2.98 0.0 0 1 737.31 55.75
  Q 737.37 72.20 737.52 82.07
  C 737.68 91.84 736.47 99.18 731.53 106.58
  Q 721.59 121.43 703.66 123.84
  A 0.94 0.94 0.0 0 0 702.86 124.78
  L 702.95 150.53
  A 0.93 0.92 1.8 0 0 703.83 151.44
  C 708.95 151.73 723.50 153.95 725.46 160.14
  A 1.90 1.62 68.1 0 1 724.74 162.28
  Q 724.65 162.33 724.14 162.34
  Q 720.63 162.40 699.26 162.44
  Z"
/>
</svg>
